<svg width="26" height="22" viewBox="0 0 26 22" fill="none" xmlns="http://www.w3.org/2000/svg">
<path d="M15 21.7773C16.4766 21.7773 17.8633 21.4961 19.1602 20.9336C20.457 20.3711 21.5977 19.5977 22.582 18.6133C23.5664 17.6289 24.3398 16.4883 24.9023 15.1914C25.4648 13.8945 25.7461 12.5078 25.7461 11.0312C25.7461 9.55469 25.4648 8.16797 24.9023 6.87109C24.3398 5.57422 23.5664 4.43359 22.582 3.44922C21.5977 2.46484 20.457 1.69141 19.1602 1.12891C17.8633 0.566406 16.4766 0.285156 15 0.285156C13.5547 0.285156 12.1953 0.554688 10.9219 1.09375C9.65625 1.625 8.53125 2.36328 7.54688 3.30859C6.57031 4.25391 5.79297 5.35156 5.21484 6.60156C4.63672 7.85156 4.32031 9.19141 4.26562 10.6211C4.375 10.5977 4.48438 10.582 4.59375 10.5742C4.70312 10.5586 4.81641 10.5469 4.93359 10.5391C4.98828 9.20312 5.28906 7.95312 5.83594 6.78906C6.38281 5.625 7.11328 4.60547 8.02734 3.73047C8.94141 2.85547 9.99219 2.17188 11.1797 1.67969C12.375 1.17969 13.6484 0.929688 15 0.929688C16.3906 0.929688 17.6953 1.19531 18.9141 1.72656C20.1328 2.25 21.2031 2.97656 22.125 3.90625C23.0547 4.82812 23.7812 5.89844 24.3047 7.11719C24.8359 8.32812 25.1016 9.63281 25.1016 11.0312C25.1016 12.3672 24.8516 13.6289 24.3516 14.8164C23.8594 15.9961 23.1875 17.0391 22.3359 17.9453C22.0703 17.4531 21.5977 16.9531 20.918 16.4453C20.2461 15.9297 19.4062 15.4961 18.3984 15.1445C17.3906 14.793 16.2578 14.6172 15 14.6172C14.3359 14.6172 13.7031 14.6719 13.1016 14.7812C12.5078 14.8906 11.9492 15.0352 11.4258 15.2148C11.5508 15.6602 11.6133 16.1484 11.6133 16.6797C11.6133 17.4219 11.4844 18.1289 11.2266 18.8008C10.9688 19.4727 10.6133 20.0781 10.1602 20.6172C10.8945 20.9844 11.668 21.2695 12.4805 21.4727C13.293 21.6758 14.1328 21.7773 15 21.7773ZM15 12.707C15.7031 12.707 16.3359 12.5273 16.8984 12.168C17.4609 11.8008 17.9023 11.3047 18.2227 10.6797C18.5508 10.0469 18.7148 9.33984 18.7148 8.55859C18.7148 7.83203 18.5469 7.16016 18.2109 6.54297C17.8828 5.92578 17.4375 5.43359 16.875 5.06641C16.3203 4.69141 15.6953 4.50391 15 4.50391C14.3125 4.50391 13.6836 4.69141 13.1133 5.06641C12.543 5.43359 12.0898 5.92578 11.7539 6.54297C11.4258 7.16016 11.2656 7.83203 11.2734 8.55859C11.2812 9.33984 11.4492 10.043 11.7773 10.668C12.1055 11.293 12.5469 11.7891 13.1016 12.1562C13.6641 12.5156 14.2969 12.6992 15 12.707ZM5.44922 21.9883C6.16797 21.9883 6.84375 21.8477 7.47656 21.5664C8.11719 21.293 8.67969 20.9102 9.16406 20.418C9.64844 19.9336 10.0273 19.375 10.3008 18.7422C10.582 18.1016 10.7227 17.4219 10.7227 16.7031C10.7227 15.7344 10.4844 14.8516 10.0078 14.0547C9.53125 13.2578 8.89453 12.6211 8.09766 12.1445C7.30078 11.6602 6.41797 11.418 5.44922 11.418C4.48828 11.418 3.60547 11.6602 2.80078 12.1445C2.00391 12.6211 1.36719 13.2617 0.890625 14.0664C0.40625 14.8633 0.164062 15.7422 0.164062 16.7031C0.164062 17.4297 0.304688 18.1094 0.585938 18.7422C0.859375 19.375 1.23828 19.9336 1.72266 20.418C2.20703 20.9102 2.76562 21.293 3.39844 21.5664C4.03906 21.8477 4.72266 21.9883 5.44922 21.9883ZM4.83984 19.6562C4.77734 19.6562 4.71094 19.6406 4.64062 19.6094C4.57812 19.5781 4.52344 19.5352 4.47656 19.4805L2.4375 17.2422C2.39844 17.1953 2.36719 17.1445 2.34375 17.0898C2.32031 17.0352 2.30859 16.9805 2.30859 16.9258C2.30859 16.793 2.35156 16.6875 2.4375 16.6094C2.52344 16.5312 2.62891 16.4922 2.75391 16.4922C2.83984 16.4922 2.91016 16.5117 2.96484 16.5508C3.02734 16.5898 3.07812 16.6328 3.11719 16.6797L4.80469 18.5078L7.78125 14.4297C7.875 14.3047 8 14.2422 8.15625 14.2422C8.26562 14.2422 8.36328 14.2852 8.44922 14.3711C8.53516 14.4492 8.57812 14.5469 8.57812 14.6641C8.57812 14.7188 8.56641 14.7695 8.54297 14.8164C8.52734 14.8633 8.50391 14.9102 8.47266 14.957L5.20312 19.4688C5.125 19.5938 5.00391 19.6562 4.83984 19.6562Z" fill="black"/>
</svg>
