<svg width="22" height="22" viewBox="0 0 22 22" fill="none" xmlns="http://www.w3.org/2000/svg">
<path d="M11 0.0117199C9.5 0.01172 8.08984 0.300783 6.76953 0.878908C5.4414 1.44922 4.27344 2.23828 3.26562 3.2461C2.25 4.25391 1.45703 5.41797 0.886717 6.73828C0.316405 8.06641 0.0312486 9.48438 0.0312487 10.9922C0.0312488 12.4922 0.316405 13.9023 0.886718 15.2227C1.45703 16.5508 2.25 17.7188 3.26562 18.7266C4.27344 19.7422 5.44141 20.5352 6.76953 21.1055C8.08984 21.6758 9.50391 21.9609 11.0117 21.9609C12.5117 21.9609 13.9258 21.6758 15.2539 21.1055C16.5742 20.5352 17.7422 19.7422 18.7578 18.7266C19.7656 17.7188 20.5547 16.5508 21.125 15.2227C21.6953 13.9023 21.9805 12.4922 21.9805 10.9922C21.9805 9.48438 21.6953 8.06641 21.125 6.73828C20.5469 5.41797 19.7539 4.25391 18.7461 3.24609C17.7383 2.23828 16.5742 1.44922 15.2539 0.878907C13.9258 0.300782 12.5078 0.0117198 11 0.0117199ZM11 1.17188C12.3594 1.17188 13.6328 1.42578 14.8203 1.93359C16.0078 2.44141 17.0508 3.14453 17.9492 4.04297C18.8477 4.94141 19.5508 5.98438 20.0586 7.17188C20.5586 8.35938 20.8086 9.63281 20.8086 10.9922C20.8086 12.3438 20.5586 13.6133 20.0586 14.8008C19.5508 15.9883 18.8477 17.0313 17.9492 17.9297C17.0508 18.8281 16.0078 19.5313 14.8203 20.0391C13.6328 20.5469 12.3633 20.8008 11.0117 20.8008C9.65234 20.8008 8.37891 20.5469 7.19141 20.0391C6.00391 19.5313 4.96094 18.8281 4.0625 17.9297C3.16406 17.0313 2.46094 15.9883 1.95312 14.8008C1.44531 13.6133 1.19141 12.3438 1.1914 10.9922C1.18359 9.63281 1.4375 8.35938 1.95312 7.17188C2.46094 5.98438 3.16406 4.94141 4.0625 4.04297C4.95312 3.14453 5.99219 2.44141 7.17969 1.9336C8.36719 1.42578 9.64062 1.17188 11 1.17188ZM10.3203 7.35938L5.59766 12.2344C5.48828 12.3594 5.42969 12.4922 5.42187 12.6328C5.41406 12.7813 5.46484 12.9102 5.57422 13.0195C5.68359 13.1211 5.81641 13.1758 5.97266 13.1836C6.12109 13.1914 6.25 13.1367 6.35937 13.0195L11.0117 8.20313L15.6523 13.0195C15.7617 13.1367 15.8945 13.1914 16.0508 13.1836C16.1992 13.1836 16.3242 13.1289 16.4258 13.0195C16.5352 12.9102 16.5898 12.7813 16.5898 12.6328C16.582 12.4922 16.5234 12.3594 16.4141 12.2344L11.6914 7.35938C11.4727 7.125 11.2422 7.00781 11 7.00781C10.7578 7.00781 10.5312 7.125 10.3203 7.35938Z" fill="black"/>
</svg>
