<svg width="22" height="24" viewBox="0 0 22 24" fill="none" xmlns="http://www.w3.org/2000/svg">
<path d="M0.602972 18.043C0.602972 18.4805 0.759222 18.832 1.07172 19.0977C1.38422 19.3633 1.81391 19.4961 2.36078 19.4961H6.97797C7.00922 20.207 7.20844 20.8672 7.57563 21.4766C7.94282 22.0938 8.43891 22.5898 9.06391 22.9648C9.68891 23.3477 10.4038 23.5391 11.2084 23.5391C12.0209 23.5391 12.7397 23.3477 13.3647 22.9648C13.9897 22.5898 14.4858 22.0977 14.853 21.4883C15.2202 20.8789 15.4194 20.2148 15.4506 19.4961H20.0678C20.6147 19.4961 21.0444 19.3633 21.3569 19.0977C21.6694 18.832 21.8256 18.4805 21.8256 18.043C21.8256 17.4727 21.5991 16.9336 21.1459 16.4258C20.7006 15.9102 20.2319 15.4062 19.7397 14.9141C19.4897 14.6562 19.2944 14.3281 19.1538 13.9297C19.0131 13.5234 18.9077 13.0859 18.8373 12.6172C18.767 12.1406 18.7163 11.6641 18.685 11.1875C18.6381 9.76562 18.4663 8.50781 18.1694 7.41406C17.8803 6.32031 17.435 5.41016 16.8334 4.68359C16.2319 3.94922 15.4428 3.40234 14.4663 3.04297C14.2631 2.31641 13.8764 1.70313 13.3061 1.20312C12.7358 0.703125 12.0366 0.453125 11.2084 0.453125C10.3881 0.453125 9.68891 0.703125 9.11078 1.20312C8.54047 1.70313 8.15766 2.31641 7.96235 3.04297C6.98578 3.40234 6.19282 3.94922 5.58344 4.68359C4.98188 5.41016 4.53266 6.32031 4.23578 7.41406C3.94672 8.50781 3.78266 9.76562 3.7436 11.1875C3.70453 11.6641 3.64985 12.1406 3.57953 12.6172C3.51703 13.0859 3.41547 13.5234 3.27485 13.9297C3.13422 14.3281 2.93891 14.6562 2.68891 14.9141C2.19672 15.4062 1.72407 15.9102 1.27094 16.4258C0.825628 16.9336 0.602972 17.4727 0.602972 18.043ZM3.01703 17.6328V17.5039C3.09516 17.3945 3.21235 17.2578 3.3686 17.0938C3.53266 16.9297 3.71235 16.75 3.90766 16.5547C4.10297 16.3516 4.29047 16.1406 4.47016 15.9219C4.66547 15.7031 4.83735 15.4453 4.98578 15.1484C5.13422 14.8438 5.25532 14.5039 5.34907 14.1289C5.45063 13.7539 5.52875 13.3398 5.58344 12.8867C5.64594 12.4258 5.69282 11.9297 5.72407 11.3984C5.75532 9.85156 5.92328 8.62109 6.22797 7.70703C6.53266 6.78516 6.9311 6.09766 7.42328 5.64453C7.91547 5.19141 8.46625 4.88281 9.07563 4.71875C9.21625 4.6875 9.32172 4.63672 9.39203 4.56641C9.47016 4.48828 9.51313 4.375 9.52094 4.22656C9.54438 3.64844 9.70453 3.18359 10.0014 2.83203C10.3061 2.48047 10.7084 2.30469 11.2084 2.30469C11.7163 2.30469 12.1186 2.48047 12.4155 2.83203C12.7123 3.18359 12.8725 3.64844 12.8959 4.22656C12.9116 4.375 12.9545 4.48828 13.0248 4.56641C13.103 4.63672 13.2084 4.6875 13.3413 4.71875C13.9584 4.88281 14.5131 5.19141 15.0053 5.64453C15.4975 6.09766 15.892 6.78516 16.1889 7.70703C16.4936 8.62109 16.6655 9.85156 16.7045 11.3984C16.728 11.9297 16.7709 12.4258 16.8334 12.8867C16.8959 13.3398 16.978 13.7539 17.0795 14.1289C17.1811 14.5039 17.3022 14.8438 17.4428 15.1484C17.5913 15.4453 17.7592 15.7031 17.9467 15.9219C18.1342 16.1406 18.3256 16.3516 18.5209 16.5547C18.7163 16.75 18.8881 16.9297 19.0366 17.0938C19.1928 17.2578 19.31 17.3945 19.3881 17.5039V17.6328H3.01703ZM8.89985 19.4961H13.5288C13.4897 20.2227 13.2553 20.7969 12.8256 21.2188C12.4038 21.6484 11.8647 21.8633 11.2084 21.8633C10.56 21.8633 10.0209 21.6484 9.59125 21.2188C9.16938 20.7969 8.93891 20.2227 8.89985 19.4961Z" fill="black"/>
</svg>
