<svg width="19" height="19" viewBox="0 0 19 19" fill="none" xmlns="http://www.w3.org/2000/svg">
<path d="M9.53809 18.6279C14.4424 18.6279 18.5029 14.5674 18.5029 9.66309C18.5029 4.76758 14.4336 0.698242 9.5293 0.698242C4.63379 0.698242 0.573242 4.76758 0.573242 9.66309C0.573242 14.5674 4.64258 18.6279 9.53809 18.6279ZM5.56543 12.9326C5.09082 12.9326 4.81836 12.6865 4.81836 12.335C4.81836 11.8252 5.32812 11.3857 5.75879 10.9375C6.09277 10.5771 6.16309 9.86523 6.20703 9.30273C6.24219 7.36035 6.76074 6.04199 8.08789 5.5498C8.29883 4.89941 8.80859 4.38086 9.54688 4.38086C10.2852 4.38086 10.8037 4.89941 11.0059 5.5498C12.333 6.04199 12.8516 7.36035 12.8955 9.30273C12.9307 9.86523 12.9922 10.5771 13.335 10.9375C13.7832 11.377 14.2754 11.8252 14.2754 12.335C14.2754 12.6865 14.0029 12.9326 13.5371 12.9326H5.56543ZM9.54688 15.0332C8.69434 15.0332 8.0791 14.418 8.01758 13.6973H11.0762C11.0234 14.418 10.3994 15.0332 9.54688 15.0332Z" fill="white"/>
</svg>
