<svg width="22" height="24" viewBox="0 0 22 24" fill="none" xmlns="http://www.w3.org/2000/svg">
<path d="M1.9176 19.3073H19.4157C20.0041 19.3073 20.469 19.1509 20.8104 18.838C21.159 18.5252 21.3333 18.1118 21.3333 17.5977C21.3333 17.1881 21.2317 16.8007 21.0283 16.4358C20.8322 16.0708 20.5779 15.7244 20.2656 15.3966C19.9605 15.0614 19.6445 14.7337 19.3177 14.4134C19.0489 14.1601 18.8419 13.825 18.6966 13.4078C18.5587 12.9907 18.4497 12.5288 18.3697 12.0224C18.2972 11.5083 18.2318 10.987 18.1737 10.4581C18.101 9.13221 17.9085 7.9404 17.5962 6.88268C17.2911 5.82495 16.8408 4.9311 16.2452 4.20112C15.6568 3.47114 14.8978 2.93482 13.968 2.59218C13.7356 1.85475 13.3288 1.24022 12.7477 0.748603C12.1666 0.249532 11.4693 0 10.6558 0C9.85675 0 9.16673 0.249532 8.5856 0.748603C8.00455 1.24022 7.59776 1.85475 7.36534 2.59218C6.4356 2.93482 5.67291 3.47114 5.07729 4.20112C4.48167 4.9311 4.0277 5.82495 3.71536 6.88268C3.41029 7.9404 3.22507 9.13221 3.15969 10.4581C3.10158 10.987 3.03258 11.5083 2.95267 12.0224C2.88004 12.5288 2.77108 12.9907 2.62581 13.4078C2.4878 13.825 2.28442 14.1601 2.01566 14.4134C1.6888 14.7337 1.3692 15.0614 1.05686 15.3966C0.751788 15.7244 0.49756 16.0708 0.294178 16.4358C0.0980593 16.8007 0 17.1881 0 17.5977C0 18.1118 0.170696 18.5252 0.512088 18.838C0.860739 19.1509 1.32925 19.3073 1.9176 19.3073ZM10.6558 24C11.3168 24 11.9087 23.8548 12.4317 23.5642C12.9547 23.2812 13.3724 22.9013 13.6847 22.4246C13.997 21.9553 14.1787 21.4451 14.2295 20.8938H7.10385C7.14743 21.4451 7.32539 21.9553 7.63771 22.4246C7.95732 22.9013 8.37496 23.2812 8.89071 23.5642C9.41367 23.8548 10.002 24 10.6558 24Z" fill="#8C8C8C"/>
</svg>
