<svg width="19" height="19" viewBox="0 0 19 19" fill="none" xmlns="http://www.w3.org/2000/svg">
<path d="M9.45557 18.7447C10.674 18.7447 11.8182 18.5127 12.8882 18.0489C13.9582 17.585 14.9014 16.9449 15.7178 16.1284C16.5404 15.312 17.1836 14.3688 17.6475 13.2989C18.1113 12.2227 18.3433 11.0754 18.3433 9.85696C18.3433 8.64472 18.1082 7.50361 17.6382 6.43362C17.1743 5.35745 16.5311 4.41116 15.7085 3.59476C14.8921 2.77217 13.9489 2.12894 12.8789 1.66507C11.8089 1.2012 10.6647 0.969269 9.44629 0.969269C8.23405 0.969269 7.09294 1.2012 6.02295 1.66507C4.95296 2.12894 4.00667 2.77217 3.18408 3.59476C2.36768 4.41116 1.72754 5.35745 1.26367 6.43362C0.799805 7.50361 0.567871 8.64472 0.567871 9.85696C0.567871 11.0754 0.799805 12.2227 1.26367 13.2989C1.73372 14.3688 2.37695 15.312 3.19336 16.1284C4.00977 16.9449 4.95296 17.585 6.02295 18.0489C7.09294 18.5127 8.23714 18.7447 9.45557 18.7447Z" fill="#3897F0"/>
</svg>
