<svg width="16" height="16" viewBox="0 0 16 16" fill="none" xmlns="http://www.w3.org/2000/svg">
<path d="M7.80469 15.1484C8.83073 15.1484 9.79427 14.9531 10.6953 14.5625C11.5964 14.1719 12.3906 13.6328 13.0781 12.9453C13.7708 12.2578 14.3125 11.4635 14.7031 10.5625C15.0938 9.65625 15.2891 8.6901 15.2891 7.66406C15.2891 6.64323 15.0911 5.68229 14.6953 4.78125C14.3047 3.875 13.763 3.07812 13.0703 2.39062C12.3828 1.69792 11.5885 1.15625 10.6875 0.765625C9.78646 0.375 8.82292 0.179688 7.79688 0.179688C6.77604 0.179688 5.8151 0.375 4.91406 0.765625C4.01302 1.15625 3.21615 1.69792 2.52344 2.39062C1.83594 3.07812 1.29688 3.875 0.90625 4.78125C0.515625 5.68229 0.320312 6.64323 0.320312 7.66406C0.320312 8.6901 0.515625 9.65625 0.90625 10.5625C1.30208 11.4635 1.84375 12.2578 2.53125 12.9453C3.21875 13.6328 4.01302 14.1719 4.91406 14.5625C5.8151 14.9531 6.77865 15.1484 7.80469 15.1484ZM6.99219 11.2578C6.8724 11.2578 6.76562 11.2318 6.67188 11.1797C6.57812 11.1276 6.48698 11.0469 6.39844 10.9375L4.48438 8.60156C4.375 8.46615 4.32031 8.32292 4.32031 8.17188C4.32031 8.01562 4.3724 7.88542 4.47656 7.78125C4.58073 7.67188 4.70833 7.61719 4.85938 7.61719C4.95312 7.61719 5.03906 7.63802 5.11719 7.67969C5.20052 7.71615 5.28125 7.78906 5.35938 7.89844L6.96094 9.91406L10.2109 4.71875C10.3359 4.51562 10.4948 4.41406 10.6875 4.41406C10.8333 4.41406 10.9635 4.46094 11.0781 4.55469C11.1927 4.64844 11.25 4.77344 11.25 4.92969C11.25 5.0026 11.2318 5.07812 11.1953 5.15625C11.1641 5.22917 11.1276 5.29948 11.0859 5.36719L7.54688 10.9375C7.40625 11.151 7.22135 11.2578 6.99219 11.2578Z" fill="#959595"/>
</svg>
