<svg width="15" height="15" viewBox="0 0 15 15" fill="none" xmlns="http://www.w3.org/2000/svg">
<path d="M6.10986 14.593C6.4668 14.593 6.74902 14.4353 6.94824 14.1282L14.7925 1.77661C14.9419 1.53589 15 1.35327 15 1.16235C15 0.705811 14.7012 0.406982 14.2446 0.406982C13.9126 0.406982 13.73 0.514893 13.5308 0.830322L6.07666 12.7087L2.2085 7.64526C2.00098 7.35474 1.79346 7.23853 1.49463 7.23853C1.02148 7.23853 0.697754 7.56226 0.697754 8.0188C0.697754 8.20972 0.780762 8.42554 0.938477 8.62476L5.24658 14.1116C5.49561 14.4353 5.75293 14.593 6.10986 14.593Z" fill="#007AFF"/>
</svg>
