<svg width="21" height="21" viewBox="0 0 21 21" fill="none" xmlns="http://www.w3.org/2000/svg">
<path d="M10.709 20.9102C16.1582 20.9102 20.6699 16.3887 20.6699 10.9492C20.6699 5.5 16.1484 0.988281 10.6992 0.988281C5.25977 0.988281 0.748047 5.5 0.748047 10.9492C0.748047 16.3887 5.26953 20.9102 10.709 20.9102ZM7.42773 15.0508C6.97852 15.0508 6.62695 14.6895 6.62695 14.2402C6.62695 14.0254 6.70508 13.8203 6.86133 13.6738L9.56641 10.959L6.86133 8.25391C6.70508 8.09766 6.62695 7.90234 6.62695 7.6875C6.62695 7.22852 6.97852 6.88672 7.42773 6.88672C7.65234 6.88672 7.82812 6.96484 7.98438 7.11133L10.709 9.82617L13.4531 7.10156C13.6191 6.93555 13.7949 6.86719 14.0098 6.86719C14.459 6.86719 14.8203 7.21875 14.8203 7.66797C14.8203 7.89258 14.752 8.06836 14.5762 8.24414L11.8613 10.959L14.5664 13.6641C14.7324 13.8105 14.8105 14.0156 14.8105 14.2402C14.8105 14.6895 14.4492 15.0508 13.9902 15.0508C13.7656 15.0508 13.5605 14.9727 13.4141 14.8164L10.709 12.1016L8.01367 14.8164C7.85742 14.9727 7.65234 15.0508 7.42773 15.0508Z" fill="black" fill-opacity="0.5"/>
</svg>
