<svg width="20" height="20" viewBox="0 0 20 20" fill="none" xmlns="http://www.w3.org/2000/svg">
<path d="M10.3281 19.5195C15.582 19.5195 19.8984 15.2031 19.8984 9.94922C19.8984 4.68555 15.582 0.369141 10.3184 0.369141C5.06445 0.369141 0.748047 4.68555 0.748047 9.94922C0.748047 15.2031 5.06445 19.5195 10.3281 19.5195ZM10.3281 18.7773C5.44531 18.7773 1.49023 14.8223 1.49023 9.94922C1.49023 5.07617 5.44531 1.11133 10.3184 1.11133C15.2012 1.11133 19.1562 5.07617 19.1562 9.94922C19.1562 14.8223 15.2012 18.7773 10.3281 18.7773ZM6.82227 13.8457C6.93945 13.8457 7.02734 13.8164 7.125 13.709L10.3184 10.5059L13.5215 13.709C13.6289 13.8066 13.7168 13.8457 13.834 13.8457C14.0488 13.8457 14.2246 13.6895 14.2246 13.4746C14.2246 13.3574 14.1855 13.2695 14.0977 13.1816L10.875 9.95898L14.0977 6.73633C14.1855 6.63867 14.2246 6.56055 14.2246 6.44336C14.2246 6.23828 14.0488 6.07227 13.834 6.07227C13.7168 6.07227 13.6387 6.11133 13.5312 6.20898L10.3184 9.41211L7.11523 6.20898C7.01758 6.11133 6.93945 6.07227 6.82227 6.07227C6.59766 6.07227 6.42188 6.23828 6.42188 6.44336C6.42188 6.56055 6.46094 6.64844 6.55859 6.73633L9.77148 9.95898L6.55859 13.1816C6.46094 13.2695 6.42188 13.3574 6.42188 13.4746C6.42188 13.6895 6.59766 13.8457 6.82227 13.8457Z" fill="black"/>
</svg>
