<svg width="18" height="18" viewBox="0 0 18 18" fill="none" xmlns="http://www.w3.org/2000/svg">
<path d="M9 17.4736C13.6318 17.4736 17.4668 13.6304 17.4668 9.00684C17.4668 4.375 13.6235 0.540039 8.9917 0.540039C4.36816 0.540039 0.533203 4.375 0.533203 9.00684C0.533203 13.6304 4.37646 17.4736 9 17.4736ZM6.21094 12.4932C5.8291 12.4932 5.53027 12.186 5.53027 11.8042C5.53027 11.6216 5.59668 11.4473 5.72949 11.3228L8.02881 9.01514L5.72949 6.71582C5.59668 6.58301 5.53027 6.41699 5.53027 6.23438C5.53027 5.84424 5.8291 5.55371 6.21094 5.55371C6.40186 5.55371 6.55127 5.62012 6.68408 5.74463L9 8.05225L11.3325 5.73633C11.4736 5.59521 11.623 5.53711 11.8057 5.53711C12.1875 5.53711 12.4946 5.83594 12.4946 6.21777C12.4946 6.40869 12.4365 6.55811 12.2871 6.70752L9.97949 9.01514L12.2788 11.3145C12.4199 11.439 12.4863 11.6133 12.4863 11.8042C12.4863 12.186 12.1792 12.4932 11.7891 12.4932C11.5981 12.4932 11.4238 12.4268 11.2993 12.2939L9 9.98633L6.70898 12.2939C6.57617 12.4268 6.40186 12.4932 6.21094 12.4932Z" fill="black" fill-opacity="0.8"/>
</svg>
