<svg width="28" height="26" viewBox="0 0 28 26" fill="none" xmlns="http://www.w3.org/2000/svg">
<path d="M19.5098 25.6021C20.3643 25.6021 20.8403 24.9917 20.8403 24.0518V20.8779H21.4263C25.064 20.8779 27.0171 18.876 27.0171 15.2871V5.93652C27.0171 2.34766 25.064 0.345703 21.4263 0.345703H5.70361C2.06592 0.345703 0.112793 2.35986 0.112793 5.93652V15.2871C0.112793 18.8638 2.06592 20.8779 5.70361 20.8779H13.5405L17.752 24.6255C18.4966 25.2847 18.9116 25.6021 19.5098 25.6021ZM19.0093 23.3682L15.103 19.4863C14.6392 19.0103 14.2974 18.9126 13.6138 18.9126H5.70361C3.25 18.9126 2.07812 17.6553 2.07812 15.2749V5.93652C2.07812 3.55615 3.25 2.31104 5.70361 2.31104H21.4263C23.8921 2.31104 25.0518 3.55615 25.0518 5.93652V15.2749C25.0518 17.6553 23.8921 18.9126 21.4263 18.9126H19.9248C19.2656 18.9126 19.0093 19.1689 19.0093 19.8281V23.3682Z" fill="black"/>
</svg>
