<svg width="16" height="16" viewBox="0 0 16 16" fill="none" xmlns="http://www.w3.org/2000/svg">
<path d="M2.88965 12.0703H4.05859V13.1162C4.05859 14.5244 4.76953 15.2354 6.20508 15.2354H13.0684C14.4902 15.2354 15.208 14.5244 15.208 13.1162V6.19824C15.208 4.79004 14.4902 4.0791 13.0684 4.0791H11.8926V3.0332C11.8926 1.625 11.1748 0.914062 9.75293 0.914062H2.88965C1.4541 0.914062 0.743164 1.625 0.743164 3.0332V9.95117C0.743164 11.3594 1.4541 12.0703 2.88965 12.0703ZM2.90332 10.9697C2.21973 10.9697 1.84375 10.6006 1.84375 9.88965V3.09473C1.84375 2.38379 2.21973 2.01465 2.90332 2.01465H9.73242C10.4092 2.01465 10.792 2.38379 10.792 3.09473V4.0791H6.20508C4.76953 4.0791 4.05859 4.7832 4.05859 6.19824V10.9697H2.90332ZM6.21875 14.1348C5.54199 14.1348 5.15918 13.7656 5.15918 13.0547V6.25977C5.15918 5.54883 5.54199 5.17969 6.21875 5.17969H13.0479C13.7246 5.17969 14.1074 5.54883 14.1074 6.25977V13.0547C14.1074 13.7656 13.7246 14.1348 13.0479 14.1348H6.21875Z" fill="#3897F0"/>
</svg>
