<svg width="22" height="22" viewBox="0 0 22 22" fill="none" xmlns="http://www.w3.org/2000/svg">
<path d="M11 21.9883C12.5 21.9883 13.9102 21.6992 15.2305 21.1211C16.5586 20.5508 17.7266 19.7617 18.7344 18.7539C19.75 17.7461 20.543 16.582 21.1133 15.2617C21.6836 13.9336 21.9688 12.5156 21.9688 11.0078C21.9688 9.50781 21.6836 8.09766 21.1133 6.77734C20.543 5.44922 19.75 4.28125 18.7344 3.27344C17.7266 2.25781 16.5586 1.46484 15.2305 0.894531C13.9102 0.324219 12.4961 0.0390625 10.9883 0.0390625C9.48828 0.0390625 8.07422 0.324219 6.74609 0.894531C5.42578 1.46484 4.25781 2.25781 3.24219 3.27344C2.23438 4.28125 1.44531 5.44922 0.875 6.77734C0.304688 8.09766 0.0195313 9.50781 0.0195313 11.0078C0.0195313 12.5156 0.304688 13.9336 0.875 15.2617C1.45313 16.582 2.24609 17.7461 3.25391 18.7539C4.26172 19.7617 5.42578 20.5508 6.74609 21.1211C8.07422 21.6992 9.49219 21.9883 11 21.9883ZM11.7148 14.6875C11.5586 14.8438 11.3984 14.9492 11.2344 15.0039C11.0781 15.0508 10.918 15.0508 10.7539 15.0039C10.5977 14.9492 10.4414 14.8438 10.2852 14.6875L5.51563 9.73047C5.39844 9.61328 5.33594 9.48047 5.32813 9.33203C5.32813 9.18359 5.38281 9.05078 5.49219 8.93359C5.60156 8.82422 5.73438 8.76953 5.89063 8.76953C6.04688 8.76172 6.17969 8.81641 6.28906 8.93359L11 13.8086L15.7109 8.93359C15.8203 8.81641 15.9531 8.76172 16.1094 8.76953C16.2656 8.76953 16.3984 8.82422 16.5078 8.93359C16.6172 9.04297 16.668 9.17578 16.6602 9.33203C16.6602 9.48047 16.6016 9.61328 16.4844 9.73047L11.7148 14.6875Z" fill="black"/>
</svg>
