<svg width="19" height="19" viewBox="0 0 19 19" fill="none" xmlns="http://www.w3.org/2000/svg">
<path d="M15.7178 16.1284L15.0133 15.4187L15.0107 15.4213L15.7178 16.1284ZM17.6475 13.2989L18.565 13.6966L18.5658 13.6947L17.6475 13.2989ZM17.6382 6.43362L16.7198 6.82946L16.7226 6.83583L17.6382 6.43362ZM15.7085 3.59476L14.9987 4.29921L15.0041 4.30453L15.7085 3.59476ZM6.02295 1.66507L5.62519 0.747578L6.02295 1.66507ZM1.26367 6.43362L2.18116 6.83138L2.182 6.82945L1.26367 6.43362ZM1.26367 13.2989L0.345326 13.6947L0.348123 13.7011L1.26367 13.2989ZM6.02295 18.0489L5.62519 18.9664L6.02295 18.0489ZM9.45557 19.7447C10.8046 19.7447 12.0848 19.4871 13.2859 18.9664L12.4904 17.1314C11.5516 17.5384 10.5434 17.7447 9.45557 17.7447V19.7447ZM13.2859 18.9664C14.4702 18.453 15.5186 17.7418 16.4249 16.8356L15.0107 15.4213C14.2841 16.1479 13.4462 16.717 12.4904 17.1314L13.2859 18.9664ZM16.4222 16.8382C17.3356 15.9317 18.0509 14.8825 18.565 13.6966L16.73 12.9011C16.3163 13.8552 15.7452 14.6924 15.0133 15.4187L16.4222 16.8382ZM18.5658 13.6947C19.0857 12.4885 19.3433 11.206 19.3433 9.85696H17.3433C17.3433 10.9448 17.137 11.9568 16.7291 12.903L18.5658 13.6947ZM19.3433 9.85696C19.3433 8.51154 19.0816 7.23293 18.5537 6.03142L16.7226 6.83583C17.1349 7.77429 17.3433 8.77791 17.3433 9.85696H19.3433ZM18.5565 6.0378C18.0426 4.84561 17.3273 3.79244 16.4129 2.88499L15.0041 4.30453C15.7349 5.02989 16.306 5.86929 16.7199 6.82945L18.5565 6.0378ZM16.4183 2.89032C15.5118 1.97695 14.4625 1.26167 13.2767 0.747578L12.4811 2.58256C13.4353 2.9962 14.2724 3.56738 14.9987 4.29919L16.4183 2.89032ZM13.2767 0.747578C12.0755 0.226851 10.7953 -0.0307312 9.44629 -0.0307312V1.96927C10.5341 1.96927 11.5423 2.17555 12.4811 2.58256L13.2767 0.747578ZM9.44629 -0.0307312C8.10273 -0.0307312 6.82569 0.227131 5.62519 0.747578L6.42071 2.58256C7.36018 2.17527 8.36536 1.96927 9.44629 1.96927V-0.0307312ZM5.62519 0.747578C4.44007 1.26136 3.38876 1.97587 2.47698 2.88765L3.89119 4.30186C4.62459 3.56846 5.46586 2.99651 6.42071 2.58256L5.62519 0.747578ZM2.47698 2.88765C1.56974 3.79488 0.858527 4.84722 0.345348 6.0378L2.182 6.82945C2.59655 5.86769 3.16561 5.02744 3.89119 4.30186L2.47698 2.88765ZM0.346181 6.03587C-0.174266 7.23637 -0.432129 8.51341 -0.432129 9.85696H1.56787C1.56787 8.77604 1.77388 7.77086 2.18116 6.83138L0.346181 6.03587ZM-0.432129 9.85696C-0.432129 11.206 -0.174546 12.4885 0.345348 13.6947L2.182 12.903C1.77416 11.9568 1.56787 10.9448 1.56787 9.85696H-0.432129ZM0.348123 13.7011C0.867497 14.8833 1.58095 15.9302 2.48625 16.8356L3.90047 15.4213C3.17296 14.6938 2.59995 13.8544 2.17922 12.8967L0.348123 13.7011ZM2.48625 16.8356C3.39254 17.7418 4.44096 18.453 5.62519 18.9664L6.42071 17.1314C5.46496 16.717 4.62699 16.1479 3.90047 15.4213L2.48625 16.8356ZM5.62519 18.9664C6.82634 19.4871 8.10656 19.7447 9.45557 19.7447V17.7447C8.36772 17.7447 7.35954 17.5384 6.42071 17.1314L5.62519 18.9664Z" fill="black"/>
</svg>
