<svg width="20" height="20" viewBox="0 0 20 20" fill="none" xmlns="http://www.w3.org/2000/svg">
<path d="M3.62305 19.3418H15.8906C17.0365 19.3418 17.9102 19.041 18.5117 18.4395C19.1133 17.8379 19.4141 16.9678 19.4141 15.8291V3.51855C19.4141 2.38704 19.1133 1.52051 18.5117 0.918945C17.9102 0.317383 17.0365 0.0166016 15.8906 0.0166016H3.62305C2.47721 0.0166016 1.59993 0.317383 0.991211 0.918945C0.389648 1.51335 0.0888672 2.37988 0.0888672 3.51855V15.8291C0.0888672 16.9749 0.389648 17.8451 0.991211 18.4395C1.59993 19.041 2.47721 19.3418 3.62305 19.3418ZM6.95312 14.9805C6.73828 15.138 6.5306 15.2025 6.33008 15.1738C6.12956 15.138 5.97917 15.0306 5.87891 14.8516C5.77865 14.6725 5.77148 14.4505 5.85742 14.1855L6.98535 10.834L4.10645 8.77148C3.91309 8.62826 3.7985 8.45638 3.7627 8.25586C3.73405 8.04818 3.78418 7.86556 3.91309 7.70801C4.04199 7.54329 4.24609 7.46452 4.52539 7.47168L8.05957 7.50391L9.14453 4.12012C9.22331 3.8623 9.35221 3.69043 9.53125 3.60449C9.71745 3.51855 9.90007 3.51855 10.0791 3.60449C10.2653 3.69043 10.3978 3.8623 10.4766 4.12012L11.5615 7.50391L15.0957 7.47168C15.3893 7.46452 15.597 7.54329 15.7188 7.70801C15.8477 7.86556 15.8906 8.04818 15.8477 8.25586C15.8118 8.45638 15.7008 8.62826 15.5146 8.77148L12.6357 10.834L13.7637 14.1855C13.8496 14.4577 13.8424 14.6833 13.7422 14.8623C13.6419 15.0342 13.4915 15.138 13.291 15.1738C13.0905 15.2025 12.8828 15.138 12.668 14.9805L9.81055 12.8857L6.95312 14.9805Z" fill="#8C8C8C"/>
</svg>
