<svg width="77" height="38" viewBox="0 0 77 38" fill="none" xmlns="http://www.w3.org/2000/svg">
<rect width="77" height="38" rx="8" fill="#E9F3FE"/>
<path d="M21.5117 16.5488C22.2705 16.5488 22.9268 16.0908 23.207 15.4346H25.3945C25.7705 15.4346 26.085 15.0996 26.085 14.71C26.085 14.3066 25.7705 13.9854 25.3945 13.9854H23.2139C22.9268 13.3291 22.2705 12.8643 21.5117 12.8643C20.7529 12.8643 20.0967 13.3291 19.8164 13.9854H12.4541C12.0576 13.9854 11.7432 14.3135 11.7432 14.71C11.7432 15.0996 12.0576 15.4346 12.4541 15.4346H19.8164C20.1035 16.0908 20.7529 16.5488 21.5117 16.5488ZM21.5117 15.5713C21.0332 15.5713 20.6504 15.1885 20.6504 14.7031C20.6504 14.2178 21.0332 13.8418 21.5117 13.8418C22.0039 13.8418 22.3799 14.2178 22.3799 14.7031C22.3799 15.1885 22.0039 15.5713 21.5117 15.5713ZM12.4336 18.2988C12.0576 18.2988 11.7432 18.627 11.7432 19.0234C11.7432 19.4131 12.0576 19.748 12.4336 19.748H14.6963C14.9766 20.4043 15.6328 20.8691 16.3916 20.8691C17.1504 20.8691 17.8066 20.4043 18.0869 19.748H25.374C25.7705 19.748 26.085 19.4199 26.085 19.0234C26.085 18.627 25.7705 18.2988 25.374 18.2988H18.0869C17.8066 17.6426 17.1504 17.1846 16.3916 17.1846C15.6328 17.1846 14.9766 17.6426 14.6963 18.2988H12.4336ZM16.3916 19.8916C15.9131 19.8916 15.5303 19.5088 15.5303 19.0234C15.5303 18.5312 15.9131 18.1621 16.3916 18.1621C16.8838 18.1621 17.2598 18.5312 17.2598 19.0234C17.2598 19.5088 16.8838 19.8916 16.3916 19.8916ZM21.5117 25.1895C22.2705 25.1895 22.9268 24.7246 23.2139 24.0615H25.3945C25.7705 24.0615 26.085 23.7334 26.085 23.3438C26.085 22.9404 25.7705 22.6191 25.3945 22.6191H23.207C22.9268 21.9629 22.2773 21.498 21.5117 21.498C20.7529 21.498 20.1035 21.9629 19.8164 22.6191H12.4541C12.0576 22.6191 11.7432 22.9473 11.7432 23.3438C11.7432 23.7266 12.0576 24.0615 12.4541 24.0615H19.8164C20.0967 24.7246 20.7529 25.1895 21.5117 25.1895ZM21.5117 24.2051C21.0332 24.2051 20.6504 23.8223 20.6504 23.3438C20.6504 22.8516 21.0332 22.4756 21.5117 22.4756C22.0039 22.4756 22.3799 22.8516 22.3799 23.3438C22.3799 23.8223 22.0039 24.2051 21.5117 24.2051ZM32.5773 24H34.341V19.9736H38.4768V18.5381H34.341V15.6191H38.8664V14.1357H32.5773V24ZM41.4188 15.2773C41.9725 15.2773 42.4305 14.833 42.4305 14.2725C42.4305 13.7188 41.9725 13.2676 41.4188 13.2676C40.8582 13.2676 40.4002 13.7188 40.4002 14.2725C40.4002 14.833 40.8582 15.2773 41.4188 15.2773ZM40.5643 24H42.2664V16.5283H40.5643V24ZM44.3266 24H46.0287V13.6367H44.3266V24ZM51.0215 24.0342C51.3496 24.0342 51.6641 24.0068 51.9102 23.959V22.6465C51.7051 22.667 51.5752 22.6738 51.3359 22.6738C50.625 22.6738 50.3311 22.3594 50.3311 21.6143V17.8477H51.9102V16.5283H50.3311V14.6963H48.6016V16.5283H47.4395V17.8477H48.6016V22.0176C48.6016 23.46 49.3057 24.0342 51.0215 24.0342ZM56.6363 24.1504C58.6666 24.1504 59.6646 22.9814 59.9039 22.0176L59.9244 21.9561H58.3043L58.2838 22.0039C58.1197 22.3457 57.5934 22.8105 56.6705 22.8105C55.5152 22.8105 54.7906 22.0312 54.7701 20.6914H59.9928V20.1309C59.9928 17.875 58.6803 16.3848 56.5543 16.3848C54.4283 16.3848 53.068 17.9229 53.068 20.2744V20.2812C53.068 22.6602 54.4146 24.1504 56.6363 24.1504ZM56.5748 17.7178C57.525 17.7178 58.2154 18.3262 58.3316 19.5498H54.7838C54.9137 18.3604 55.6246 17.7178 56.5748 17.7178ZM61.5949 24H63.2971V19.6592C63.2971 18.5928 64.0422 17.916 65.177 17.916C65.4709 17.916 65.7512 17.957 66.0246 18.0117V16.4873C65.8605 16.4395 65.5939 16.4053 65.3342 16.4053C64.3498 16.4053 63.6662 16.877 63.4133 17.6768H63.2971V16.5283H61.5949V24Z" fill="#262626"/>
</svg>
