<svg width="17" height="17" viewBox="0 0 17 17" fill="none" xmlns="http://www.w3.org/2000/svg">
<path d="M3.61426 15.8311C3.91455 16.0654 4.29541 15.9849 4.74951 15.6553L8.62402 12.8062L12.5059 15.6553C12.96 15.9849 13.3335 16.0654 13.6411 15.8311C13.9414 15.604 14.0073 15.2305 13.8242 14.6958L12.2935 10.1401L16.2046 7.32764C16.6587 7.00537 16.8418 6.66846 16.7246 6.30225C16.6074 5.95068 16.2632 5.7749 15.6992 5.78223L10.9019 5.81152L9.44434 1.23389C9.26855 0.691895 9.00488 0.420898 8.62402 0.420898C8.25049 0.420898 7.98682 0.691895 7.81104 1.23389L6.35352 5.81152L1.55615 5.78223C0.992188 5.7749 0.647949 5.95068 0.530762 6.30225C0.40625 6.66846 0.59668 7.00537 1.05078 7.32764L4.96191 10.1401L3.43115 14.6958C3.24805 15.2305 3.31396 15.604 3.61426 15.8311Z" fill="white"/>
</svg>
