<svg width="25" height="23" viewBox="0 0 25 23" fill="none" xmlns="http://www.w3.org/2000/svg">
<path d="M0.0151367 7.73193C0.0151367 12.9321 4.37305 18.0469 11.2578 22.4414C11.5142 22.6001 11.8804 22.771 12.1367 22.771C12.3931 22.771 12.7593 22.6001 13.0278 22.4414C19.9004 18.0469 24.2583 12.9321 24.2583 7.73193C24.2583 3.41064 21.292 0.358887 17.3369 0.358887C15.0786 0.358887 13.2476 1.43311 12.1367 3.08105C11.0503 1.44531 9.19482 0.358887 6.93652 0.358887C2.98145 0.358887 0.0151367 3.41064 0.0151367 7.73193ZM1.98047 7.73193C1.98047 4.48486 4.08008 2.32422 6.91211 2.32422C9.20703 2.32422 10.5254 3.75244 11.3066 4.97314C11.6362 5.46143 11.8438 5.5957 12.1367 5.5957C12.4297 5.5957 12.6128 5.44922 12.9668 4.97314C13.8091 3.77686 15.0786 2.32422 17.3613 2.32422C20.1934 2.32422 22.293 4.48486 22.293 7.73193C22.293 12.2729 17.4956 17.168 12.3931 20.5615C12.271 20.647 12.1855 20.708 12.1367 20.708C12.0879 20.708 12.0024 20.647 11.8926 20.5615C6.77783 17.168 1.98047 12.2729 1.98047 7.73193Z" fill="black"/>
</svg>
