<svg width="25" height="21" viewBox="0 0 25 21" fill="none" xmlns="http://www.w3.org/2000/svg">
<path d="M14.9453 18.2734H9.99414V12.5703C9.99414 12.349 10.0592 12.1732 10.1895 12.043C10.3262 11.9128 10.5052 11.8477 10.7266 11.8477H14.2129C14.4342 11.8477 14.61 11.9128 14.7402 12.043C14.877 12.1732 14.9453 12.349 14.9453 12.5703V18.2734ZM3.98828 18.4199C3.98828 19.1165 4.19987 19.6667 4.62305 20.0703C5.05273 20.474 5.62891 20.6758 6.35156 20.6758H18.5879C19.3171 20.6758 19.8932 20.474 20.3164 20.0703C20.7396 19.6667 20.9512 19.1165 20.9512 18.4199V11.7598L13.0605 5.14844C12.6699 4.8099 12.2793 4.8099 11.8887 5.14844L3.98828 11.7598V18.4199ZM0.853516 10.041C0.853516 10.347 0.957682 10.6042 1.16602 10.8125C1.37435 11.0208 1.6543 11.125 2.00586 11.125C2.16862 11.125 2.32812 11.0892 2.48438 11.0176C2.64062 10.9395 2.78385 10.8451 2.91406 10.7344L11.9961 3.11719C12.1458 2.98047 12.3053 2.91211 12.4746 2.91211C12.6439 2.91211 12.8066 2.98047 12.9629 3.11719L22.0254 10.7344C22.1621 10.8451 22.3086 10.9395 22.4648 11.0176C22.6211 11.0892 22.7806 11.125 22.9434 11.125C23.2689 11.125 23.5391 11.0306 23.7539 10.8418C23.9688 10.6465 24.0762 10.3861 24.0762 10.0605C24.0762 9.68945 23.9297 9.37695 23.6367 9.12305L14.0176 1.05664C13.5553 0.659505 13.0443 0.460938 12.4844 0.460938C11.9245 0.460938 11.4069 0.659505 10.9316 1.05664L1.3125 9.13281C1.00651 9.38672 0.853516 9.68945 0.853516 10.041ZM18.0117 5.14844L21.0195 7.66797V2.94141C21.0195 2.73307 20.9544 2.5638 20.8242 2.43359C20.7005 2.30339 20.5312 2.23828 20.3164 2.23828H18.7246C18.5098 2.23828 18.3372 2.30339 18.207 2.43359C18.0768 2.5638 18.0117 2.73307 18.0117 2.94141V5.14844Z" fill="black"/>
</svg>
