<svg width="24" height="21" viewBox="0 0 24 21" fill="none" xmlns="http://www.w3.org/2000/svg">
<path d="M14.4453 18.4199H9.49414V12.5703C9.49414 12.349 9.55924 12.1732 9.68945 12.043C9.82617 11.9128 10.0052 11.8477 10.2266 11.8477H13.7129C13.9342 11.8477 14.11 11.9128 14.2402 12.043C14.377 12.1732 14.4453 12.349 14.4453 12.5703V18.4199ZM3.48828 18.4199C3.48828 19.1165 3.69987 19.6667 4.12305 20.0703C4.55273 20.474 5.12891 20.6758 5.85156 20.6758H18.0879C18.8171 20.6758 19.3932 20.474 19.8164 20.0703C20.2396 19.6667 20.4512 19.1165 20.4512 18.4199V11.7598L12.5605 5.14844C12.1699 4.8099 11.7793 4.8099 11.3887 5.14844L3.48828 11.7598V18.4199ZM0.353516 10.041C0.353516 10.347 0.457682 10.6042 0.666016 10.8125C0.874349 11.0208 1.1543 11.125 1.50586 11.125C1.66862 11.125 1.82812 11.0892 1.98438 11.0176C2.14062 10.9395 2.28385 10.8451 2.41406 10.7344L11.4961 3.11719C11.6458 2.98047 11.8053 2.91211 11.9746 2.91211C12.1439 2.91211 12.3066 2.98047 12.4629 3.11719L21.5254 10.7344C21.6621 10.8451 21.8086 10.9395 21.9648 11.0176C22.1211 11.0892 22.2806 11.125 22.4434 11.125C22.7689 11.125 23.0391 11.0306 23.2539 10.8418C23.4688 10.6465 23.5762 10.3861 23.5762 10.0605C23.5762 9.68945 23.4297 9.37695 23.1367 9.12305L13.5176 1.05664C13.0553 0.659505 12.5443 0.460938 11.9844 0.460938C11.4245 0.460938 10.9069 0.659505 10.4316 1.05664L0.8125 9.13281C0.50651 9.38672 0.353516 9.68945 0.353516 10.041ZM17.5117 5.14844L20.5195 7.66797V2.94141C20.5195 2.73307 20.4544 2.5638 20.3242 2.43359C20.2005 2.30339 20.0312 2.23828 19.8164 2.23828H18.2246C18.0098 2.23828 17.8372 2.30339 17.707 2.43359C17.5768 2.5638 17.5117 2.73307 17.5117 2.94141V5.14844Z" fill="#8C8C8C"/>
</svg>
