<svg width="11" height="20" viewBox="0 0 11 20" fill="none" xmlns="http://www.w3.org/2000/svg">
<path d="M0 9.93896C0 10.3208 0.137864 10.6465 0.424196 10.9385L8.69602 19.5073C8.91872 19.7544 9.21566 19.8779 9.55501 19.8779C10.2443 19.8779 10.7852 19.3164 10.7852 18.5752C10.7852 18.2158 10.6473 17.8901 10.414 17.6431L2.95877 9.93896L10.414 2.23486C10.6473 1.97656 10.7852 1.65088 10.7852 1.2915C10.7852 0.561523 10.2443 0 9.55501 0C9.21566 0 8.91872 0.123535 8.69602 0.370605L0.424196 8.93945C0.137864 9.23145 0.0106049 9.55713 0 9.93896Z" fill="black"/>
</svg>
