<svg width="29" height="22" viewBox="0 0 29 22" fill="none" xmlns="http://www.w3.org/2000/svg">
<path d="M4.16406 21.6211H22.8438C24.8477 21.6211 25.9375 20.5079 25.9375 18.4688V8.09765C25.6562 8.17968 25.375 8.22656 25.0821 8.26172V18.4453C25.0821 18.8672 25.0118 19.2422 24.8946 19.5469L17.1602 12.1289L21.9765 7.42968C21.7539 7.26562 21.5312 7.07812 21.3321 6.86718L14.9922 13.0664C14.5 13.5703 13.9727 13.7579 13.5391 13.7579C13.1172 13.7579 12.5665 13.5586 12.0859 13.0664L2.52344 3.70312C2.91016 3.36328 3.46094 3.1875 4.17578 3.1875H20.0196C20.0429 2.89453 20.0898 2.61328 20.1835 2.34375H4.08203C2.08984 2.34375 1 3.42187 1 5.49609V18.4688C1 20.5313 2.08984 21.6211 4.16406 21.6211ZM1.85547 18.4453V5.51953C1.85547 5.09765 1.91406 4.73437 2.03125 4.42968L9.91797 12.1289L2.07813 19.6524C1.92578 19.3243 1.85547 18.9141 1.85547 18.4453ZM13.5391 14.6133C14.1602 14.6133 14.8633 14.3672 15.5547 13.6993L16.5507 12.7149L24.379 20.2618C23.9921 20.5899 23.4415 20.7657 22.7617 20.7657H4.17578C3.51953 20.7657 2.99219 20.6133 2.61719 20.3321L10.5273 12.7266L11.5234 13.6993C12.2148 14.3672 12.9179 14.6133 13.5391 14.6133Z" fill="black" stroke="black" stroke-width="0.5"/>
<path d="M28.2813 3.62109C28.2813 5.60156 26.6407 7.23047 24.6602 7.23047C22.6797 7.23047 21.0508 5.60156 21.0508 3.62109C21.0508 1.64062 22.6797 0 24.6602 0C26.6407 0 28.2813 1.64062 28.2813 3.62109Z" fill="#FF0000"/>
</svg>
