<svg width="12" height="18" viewBox="0 0 12 18" fill="none" xmlns="http://www.w3.org/2000/svg">
<path d="M5.94336 11.563C7.59521 11.563 8.70752 10.3262 8.70752 8.55811V3.00488C8.70752 1.22852 7.59521 0 5.94336 0C4.2832 0 3.1709 1.22852 3.1709 3.00488V8.55811C3.1709 10.3262 4.2832 11.563 5.94336 11.563ZM0 8.69092C0 11.9448 2.1499 14.2275 5.3125 14.4932V16.4272H2.23291C1.88428 16.4272 1.60205 16.7095 1.60205 17.0581C1.60205 17.4067 1.88428 17.6807 2.23291 17.6807H9.64551C9.99414 17.6807 10.2764 17.4067 10.2764 17.0581C10.2764 16.7095 9.99414 16.4272 9.64551 16.4272H6.56592V14.4932C9.73682 14.2275 11.8784 11.9448 11.8784 8.69092V7.00586C11.8784 6.65723 11.6045 6.3833 11.2559 6.3833C10.9072 6.3833 10.625 6.65723 10.625 7.00586V8.64111C10.625 11.4717 8.78223 13.3477 5.94336 13.3477C3.09619 13.3477 1.25342 11.4717 1.25342 8.64111V7.00586C1.25342 6.65723 0.979492 6.3833 0.622559 6.3833C0.273926 6.3833 0 6.65723 0 7.00586V8.69092Z" fill="#3897F0"/>
</svg>
