<svg width="22" height="25" viewBox="0 0 22 25" fill="none" xmlns="http://www.w3.org/2000/svg">
<path d="M1.35938 19.8633H20.414C21.2578 19.8633 21.7851 19.4062 21.7851 18.7266C21.7851 17.543 20.6367 16.5234 19.6523 15.4805C18.7031 14.4492 18.6094 12.3398 18.4101 10.5C18.3867 9.83201 18.3281 9.21094 18.2344 8.60157C17.6133 8.91797 16.8984 9.10547 16.1601 9.10547C13.289 9.10547 10.9336 6.73829 10.9336 3.86719C10.9336 2.53125 11.4492 1.30079 12.2929 0.386718C11.8828 0.175781 11.4023 0.046875 10.8867 0.046875C9.25781 0.046875 8.08594 1.20703 7.72266 2.77735C4.73438 3.73829 3.5625 6.5625 3.36328 10.5C3.16406 12.3398 3.07031 14.4492 2.1211 15.4805C1.13672 16.5234 0 17.543 0 18.7266C0 19.4062 0.515625 19.8633 1.35938 19.8633ZM10.8867 24.1641C12.7851 24.1641 14.1328 22.8047 14.3437 21.2344H7.42969C7.64063 22.8047 8.98828 24.1641 10.8867 24.1641Z" fill="#8C8C8C"/>
<path d="M20.0391 3.86719C20.0391 5.98829 18.2813 7.7461 16.172 7.7461C14.0509 7.7461 12.293 5.98829 12.293 3.86719C12.293 1.7461 14.0509 0 16.172 0C18.2813 0 20.0391 1.7461 20.0391 3.86719Z" fill="#FF0000"/>
</svg>
