<svg width="15" height="17" viewBox="0 0 15 17" fill="none" xmlns="http://www.w3.org/2000/svg">
<path d="M11.0176 7.41699C11.2363 7.41699 11.4072 7.25293 11.4072 7.03418V1.35352C11.4072 1.12793 11.2363 0.957031 11.0176 0.957031C10.8057 0.957031 10.6348 1.12793 10.6348 1.35352V7.03418C10.6348 7.25977 10.7988 7.41699 11.0176 7.41699ZM12.6172 6.74023C12.8359 6.74023 13.0068 6.56934 13.0068 6.35059V2.0166C13.0068 1.81152 12.8359 1.64062 12.6172 1.64062C12.4053 1.64062 12.2412 1.81152 12.2412 2.0166V6.35059C12.2412 6.56934 12.4053 6.74023 12.6172 6.74023ZM1.46777 13.5215H12.3027C12.9521 13.5215 13.335 13.1934 13.335 12.6943C13.335 12.0107 12.6445 11.3955 12.0498 10.7871C11.6328 10.3633 11.4756 9.51562 11.4482 8.81836C11.4482 8.68164 11.4482 8.55859 11.4414 8.43555C11.3184 8.49707 11.1748 8.52441 11.0176 8.52441C10.3271 8.52441 9.7666 8.08008 9.5957 7.45801L9.5752 7.31445C9.52734 7.33496 9.47266 7.34863 9.41797 7.34863C8.74805 7.34863 8.16016 6.89062 7.98926 6.27539L7.97559 6.15918C7.9209 6.17969 7.86621 6.19336 7.80469 6.19336C6.98438 6.19336 6.32129 5.53027 6.32129 4.70996V3.6709C6.32129 2.84375 6.98438 2.17383 7.80469 2.17383C7.83203 2.17383 7.87305 2.17383 7.90039 2.18066L7.90723 2.15332C7.62012 1.98242 7.27148 1.87305 6.88867 1.87305C5.87695 1.87305 5.17285 2.57715 4.91309 3.47266C3.09473 4.12891 2.39746 5.93359 2.34961 8.55859C2.29492 9.34473 2.17871 10.3154 1.72754 10.7871C1.13281 11.3955 0.435547 12.0107 0.435547 12.6943C0.435547 13.1934 0.825195 13.5215 1.46777 13.5215ZM9.41797 6.23438C9.62988 6.23438 9.80078 6.07031 9.80078 5.84473V2.52246C9.80078 2.31055 9.62988 2.13965 9.41797 2.13965C9.19922 2.13965 9.03516 2.31055 9.03516 2.52246V5.84473C9.03516 6.07031 9.19922 6.23438 9.41797 6.23438ZM14.2236 5.44824C14.4492 5.44824 14.6133 5.28418 14.6133 5.06543V3.30859C14.6133 3.08984 14.4492 2.92578 14.2236 2.92578C14.0117 2.92578 13.8408 3.09668 13.8408 3.30859V5.06543C13.8408 5.27734 14.0117 5.44824 14.2236 5.44824ZM7.80469 5.08594C8.03027 5.08594 8.20117 4.91504 8.20117 4.70996V3.6709C8.20117 3.45215 8.03027 3.28125 7.80469 3.28125C7.59961 3.28125 7.42871 3.45215 7.42871 3.6709V4.70996C7.42871 4.91504 7.59961 5.08594 7.80469 5.08594ZM6.88867 16.2627C8.04395 16.2627 8.8916 15.415 8.9873 14.458H4.79004C4.87891 15.415 5.72656 16.2627 6.88867 16.2627Z" fill="white"/>
</svg>
