<svg width="14" height="16" viewBox="0 0 14 16" fill="none" xmlns="http://www.w3.org/2000/svg">
<path d="M6.88867 0.873047C5.87695 0.873047 5.17285 1.57715 4.91309 2.47266C4.55078 2.5957 4.23633 2.7666 3.96973 2.98535L13.1641 12.1934C13.2803 12.0635 13.335 11.8926 13.335 11.6943C13.335 11.0107 12.6445 10.3955 12.0498 9.78711C11.5986 9.31543 11.4756 8.34473 11.4277 7.55859C11.373 4.93359 10.6826 3.12891 8.86426 2.47266C8.60449 1.57715 7.89355 0.873047 6.88867 0.873047ZM0.585938 2.26074L12.8701 14.5244C13.0752 14.7363 13.4102 14.7363 13.6152 14.5244C13.8135 14.3193 13.8203 13.9912 13.6152 13.7793L1.33789 1.51562C1.13281 1.31055 0.797852 1.31055 0.585938 1.51562C0.387695 1.71387 0.387695 2.0625 0.585938 2.26074ZM1.46777 12.5215H9.71875L2.58887 5.38477C2.43848 6.03418 2.36328 6.75195 2.34961 7.55859C2.29492 8.34473 2.17871 9.31543 1.72754 9.78711C1.13281 10.3955 0.435547 11.0107 0.435547 11.6943C0.435547 12.1934 0.825195 12.5215 1.46777 12.5215ZM6.88867 15.2627C8.04395 15.2627 8.8916 14.415 8.9873 13.458H4.79004C4.87891 14.415 5.72656 15.2627 6.88867 15.2627Z" fill="white"/>
</svg>
