<svg width="31" height="25" viewBox="0 0 31 25" fill="none" xmlns="http://www.w3.org/2000/svg">
<path d="M10.4727 23.8818H26.3545C27.404 23.8818 28.1953 23.6152 28.7285 23.082C29.2617 22.5573 29.5283 21.7744 29.5283 20.7334V20.0098L23.9678 14.7666C23.7308 14.5465 23.4727 14.3857 23.1934 14.2842C22.9225 14.1742 22.6432 14.1191 22.3555 14.1191C22.0677 14.1191 21.7884 14.1699 21.5176 14.2715C21.2552 14.373 21.0055 14.5339 20.7686 14.7539L15.9824 18.9814L14.0781 17.2676C13.8496 17.0645 13.6126 16.9121 13.3672 16.8105C13.1302 16.709 12.889 16.6582 12.6436 16.6582C12.4066 16.6582 12.1738 16.709 11.9453 16.8105C11.7168 16.9121 11.4925 17.0602 11.2725 17.2549L7.29883 20.708C7.29883 21.7744 7.56543 22.57 8.09863 23.0947C8.6403 23.6195 9.43164 23.8818 10.4727 23.8818ZM15.1572 15.0205C15.8428 15.0205 16.4352 14.7708 16.9346 14.2715C17.4339 13.7637 17.6836 13.1628 17.6836 12.4688C17.6836 11.7747 17.4339 11.1781 16.9346 10.6787C16.4352 10.1794 15.8428 9.92969 15.1572 9.92969C14.4548 9.92969 13.8538 10.1794 13.3545 10.6787C12.8636 11.1781 12.6182 11.7747 12.6182 12.4688C12.6182 13.1628 12.8636 13.7637 13.3545 14.2715C13.8538 14.7708 14.4548 15.0205 15.1572 15.0205ZM4.29004 19.0195H7.375V16.8486H4.37891C3.80339 16.8486 3.36328 16.7005 3.05859 16.4043C2.75391 16.0996 2.60156 15.6426 2.60156 15.0332V3.97559C2.60156 3.38314 2.75391 2.93457 3.05859 2.62988C3.36328 2.31673 3.80339 2.16016 4.37891 2.16016H20.4766C21.0521 2.16016 21.4922 2.31673 21.7969 2.62988C22.11 2.93457 22.2666 3.38314 22.2666 3.97559V6.48926H24.4375V3.82324C24.4375 2.56217 24.1117 1.61426 23.46 0.979492C22.8083 0.336263 21.8477 0.0146484 20.5781 0.0146484H4.29004C3.01204 0.0146484 2.0472 0.336263 1.39551 0.979492C0.752279 1.61426 0.430664 2.56217 0.430664 3.82324V15.1982C0.430664 16.4593 0.752279 17.4115 1.39551 18.0547C2.0472 18.6979 3.01204 19.0195 4.29004 19.0195ZM10.2949 24.6436H26.6973C27.9753 24.6436 28.9359 24.3219 29.5791 23.6787C30.2308 23.0439 30.5566 22.096 30.5566 20.835V9.45996C30.5566 8.20736 30.2308 7.25944 29.5791 6.61621C28.9359 5.97298 27.9753 5.65137 26.6973 5.65137H10.2949C9.01693 5.65137 8.05208 5.97298 7.40039 6.61621C6.75716 7.25944 6.43555 8.20736 6.43555 9.45996V20.835C6.43555 22.1045 6.75716 23.0566 7.40039 23.6914C8.05208 24.3262 9.01693 24.6436 10.2949 24.6436ZM10.3965 22.498C9.8125 22.498 9.36393 22.3457 9.05078 22.041C8.74609 21.7363 8.59375 21.2835 8.59375 20.6826V9.625C8.59375 9.01562 8.74609 8.56283 9.05078 8.2666C9.36393 7.96191 9.8125 7.80957 10.3965 7.80957H26.6084C27.1755 7.80957 27.6156 7.96191 27.9287 8.2666C28.2419 8.56283 28.3984 9.01562 28.3984 9.625V20.6826C28.3984 21.2835 28.2419 21.7363 27.9287 22.041C27.6156 22.3457 27.1755 22.498 26.6084 22.498H10.3965Z" fill="#C4C4C4"/>
</svg>
