<svg width="23" height="23" viewBox="0 0 23 23" fill="none" xmlns="http://www.w3.org/2000/svg">
<path d="M4.21289 22.4756H18.7744C20.0524 22.4756 21.013 22.154 21.6562 21.5107C22.3079 20.876 22.6338 19.9281 22.6338 18.667V4.0293C22.6338 2.76823 22.3079 1.81608 21.6562 1.17285C21.013 0.529622 20.0524 0.208008 18.7744 0.208008H4.21289C2.94336 0.208008 1.98275 0.529622 1.33105 1.17285C0.679362 1.80762 0.353516 2.75977 0.353516 4.0293V18.667C0.353516 19.9365 0.679362 20.8887 1.33105 21.5234C1.98275 22.1582 2.94336 22.4756 4.21289 22.4756ZM4.30176 20.3301C3.72624 20.3301 3.28613 20.1777 2.98145 19.873C2.67676 19.5684 2.52441 19.1156 2.52441 18.5146V4.18164C2.52441 3.58073 2.67676 3.12793 2.98145 2.82324C3.28613 2.51855 3.72624 2.36621 4.30176 2.36621H18.6855C19.2526 2.36621 19.6927 2.51855 20.0059 2.82324C20.319 3.12793 20.4756 3.58073 20.4756 4.18164V18.5146C20.4756 19.1156 20.319 19.5684 20.0059 19.873C19.6927 20.1777 19.2526 20.3301 18.6855 20.3301H4.30176ZM6.79004 13.5889C6.79004 13.8428 6.87044 14.0501 7.03125 14.2109C7.20052 14.3717 7.42057 14.4521 7.69141 14.4521H10.7383V16.5723C10.7383 16.987 10.7848 17.3763 10.8779 17.7402C10.9795 18.0957 11.0895 18.3877 11.208 18.6162C11.335 18.8363 11.4365 18.9463 11.5127 18.9463C11.5889 18.9463 11.6862 18.8363 11.8047 18.6162C11.9316 18.3877 12.0459 18.0957 12.1475 17.7402C12.249 17.3763 12.2998 16.987 12.2998 16.5723V14.4521H15.3467C15.6175 14.4521 15.8333 14.3717 15.9941 14.2109C16.1634 14.0501 16.248 13.8428 16.248 13.5889C16.248 12.9456 15.9984 12.3236 15.499 11.7227C15.0081 11.1133 14.3395 10.6562 13.4932 10.3516L13.3027 7.57129C13.7344 7.32585 14.1195 7.07194 14.458 6.80957C14.7965 6.5472 15.0462 6.31445 15.207 6.11133C15.3678 5.9082 15.4482 5.70085 15.4482 5.48926C15.4482 5.30306 15.3805 5.15072 15.2451 5.03223C15.1097 4.90527 14.9362 4.8418 14.7246 4.8418H8.31348C8.10189 4.8418 7.92839 4.90527 7.79297 5.03223C7.65755 5.15072 7.58984 5.30306 7.58984 5.48926C7.58984 5.69238 7.67448 5.90397 7.84375 6.12402C8.00456 6.32715 8.25 6.5599 8.58008 6.82227C8.91016 7.07617 9.29102 7.32585 9.72266 7.57129L9.53223 10.3516C8.69434 10.6562 8.02572 11.1133 7.52637 11.7227C7.03548 12.3236 6.79004 12.9456 6.79004 13.5889Z" fill="#C4C4C4"/>
</svg>
