<svg width="22" height="23" viewBox="0 0 22 23" fill="none" xmlns="http://www.w3.org/2000/svg">
<path d="M3.88672 22.3438H18.1016C20.5625 22.3438 21.7812 21.125 21.7812 18.7109V4.40234C21.7812 1.98828 20.5625 0.769531 18.1016 0.769531H3.88672C1.4375 0.769531 0.207031 1.97656 0.207031 4.40234V18.7109C0.207031 21.1367 1.4375 22.3438 3.88672 22.3438ZM3.91016 20.457C2.73828 20.457 2.09375 19.8359 2.09375 18.6172V4.49609C2.09375 3.27734 2.73828 2.65625 3.91016 2.65625H18.0781C19.2383 2.65625 19.8945 3.27734 19.8945 4.49609V18.6172C19.8945 19.8359 19.2383 20.457 18.0781 20.457H3.91016ZM5.57422 11.5391C5.57422 12.1133 5.97266 12.5 6.57031 12.5H10.0156V15.957C10.0156 16.543 10.4141 16.9531 10.9883 16.9531C11.5742 16.9531 11.9844 16.5547 11.9844 15.957V12.5H15.4414C16.0273 12.5 16.4375 12.1133 16.4375 11.5391C16.4375 10.9531 16.0273 10.543 15.4414 10.543H11.9844V7.09766C11.9844 6.5 11.5742 6.08984 10.9883 6.08984C10.4141 6.08984 10.0156 6.5 10.0156 7.09766V10.543H6.57031C5.97266 10.543 5.57422 10.9531 5.57422 11.5391Z" fill="black"/>
</svg>
