<svg width="18" height="25" viewBox="0 0 18 25" fill="none" xmlns="http://www.w3.org/2000/svg">
<path fill-rule="evenodd" clip-rule="evenodd" d="M9 23.5136C4.68495 23.5136 1 22.8421 1 20.1529C1 17.4638 4.66158 14.9813 9 14.9813C13.315 14.9813 17 17.4397 17 20.1289C17 22.817 13.3384 23.5136 9 23.5136Z" fill="#8C8C8C" stroke="#8C8C8C" stroke-width="1.5" stroke-linecap="round" stroke-linejoin="round"/>
<path fill-rule="evenodd" clip-rule="evenodd" d="M8.99149 11.2547C11.8232 11.2547 14.1183 8.95962 14.1183 6.12791C14.1183 3.29619 11.8232 1 8.99149 1C6.15977 1 3.86356 3.29619 3.86356 6.12791C3.85402 8.95006 6.13321 11.2452 8.95536 11.2547C8.96812 11.2547 8.9798 11.2547 8.99149 11.2547Z" fill="#8C8C8C" stroke="#8C8C8C" stroke-width="1.5" stroke-linecap="round" stroke-linejoin="round"/>
</svg>
