<svg width="178" height="41" viewBox="0 0 178 41" fill="none" xmlns="http://www.w3.org/2000/svg">
<g clip-path="url(#clip0_6_1567)">
<path d="M10.6635 7.45032C17.9387 7.45032 22.0285 10.2304 22.0285 17.1571C22.0285 22.9163 18.9417 25.5917 15.1066 26.3456V26.5341C16.8371 27.3823 17.9128 28.6283 19.4562 31.3875L24.4605 40.4817H15.9484L10.5232 29.7383C9.91516 28.5603 9.02654 28.1676 7.52991 28.1676H7.06221V40.4817H0V7.45032H10.6635ZM7.06221 22.4817H9.77485C13.5632 22.4817 14.7792 20.8325 14.7792 17.7697C14.7792 14.7069 12.9916 13.3875 9.87359 13.3875H7.06741L7.06221 22.4817Z" fill="black"/>
<path d="M45.6471 38.0314C43.5685 39.7278 41.0169 41 35.9658 41C27.6512 41 23.3848 36.288 23.3848 27.0995C23.3848 18.4765 28.1553 13.3403 35.7787 13.3403C42.5343 13.3403 46.3954 17.6283 46.3954 24.1309C46.4034 25.7233 46.294 27.314 46.068 28.8901H30.3067C30.4002 33.0786 32.271 35.3927 36.7609 35.3927C37.8387 35.4051 38.9079 35.1982 39.9044 34.7844C40.9009 34.3706 41.8043 33.7583 42.5603 32.9843L45.6471 38.0314ZM30.447 24.178H39.7541V23.4712C39.7541 20.3613 38.4446 18.7121 35.5968 18.7121C32.4113 18.7121 30.5405 21.0681 30.447 24.178Z" fill="black"/>
<path d="M56.4977 26.5812C57.204 28.9508 57.7817 31.3576 58.2281 33.7906H58.4152C58.7869 31.3547 59.3182 28.9464 60.0054 26.5812L63.3988 13.8586H70.461L62.1464 40.4817H54.2527L45.2729 13.8586H52.8964L56.4977 26.5812Z" fill="black"/>
<path d="M70.8092 13.8586H77.8714V40.4817H70.8092V13.8586Z" fill="black"/>
<path d="M102.005 38.0314C99.9259 39.7278 97.3743 41 92.3232 41C84.0086 41 79.7422 36.288 79.7422 27.0995C79.7422 18.4765 84.5127 13.3403 92.1361 13.3403C98.8918 13.3403 102.753 17.6283 102.753 24.1309C102.761 25.7233 102.651 27.314 102.425 28.8901H86.6641C86.7576 33.0786 88.6284 35.3927 93.1183 35.3927C94.1961 35.4051 95.2653 35.1982 96.2618 34.7844C97.2583 34.3706 98.1617 33.7583 98.9177 32.9843L102.005 38.0314ZM86.7836 24.178H96.1375V23.4712C96.1375 20.3613 94.828 18.7121 91.9802 18.7121C88.7687 18.7121 86.8979 21.0681 86.7836 24.178Z" fill="black"/>
<path d="M121.04 22.6702L116.737 40.4712H108.646L101.771 13.8586H108.833L111.639 26.178C112.269 28.9099 112.722 31.6801 112.995 34.4712H113.183C113.454 31.6889 113.938 28.932 114.632 26.2251L117.906 13.8796H124.662L127.51 26.0367C128.164 28.8168 128.824 31.5497 128.959 34.4712H129.152C129.497 31.5987 130.018 28.7504 130.711 25.9424L133.517 13.9005H139.789L132.961 40.4817H124.719L121.211 22.6806L121.04 22.6702Z" fill="black"/>
<path d="M140.636 31.9372V19.2775H137.269V14.8482L140.683 13.4346L143.115 7.15186H147.584V13.8587H154.179V19.2775H147.584V32.1414C147.584 33.9791 148.623 34.9215 150.344 34.9215C151.636 34.9144 152.895 34.5027 153.945 33.7435L155.769 39.0681C154.88 39.7278 152.822 40.7173 148.426 40.7173C143.91 40.7173 140.636 38.4084 140.636 31.9372Z" fill="black"/>
<path d="M155.509 13.8586H162.571V31.0576C162.571 33.9791 163.974 35.4869 166.36 35.4869C167.363 35.4995 168.345 35.198 169.171 34.6241C169.996 34.0501 170.625 33.232 170.969 32.2827V13.8586H178.026V40.4817H172.008L171.026 38.0314H170.844C169.285 39.9162 167.207 41 163.876 41C158.216 41 155.504 38.0314 155.504 31.7173L155.509 13.8586Z" fill="black"/>
<path d="M72.4098 3.1728L69.2918 3.6283H69.2242C69.1254 3.65454 69.0353 3.70676 68.9631 3.77962C68.8909 3.85248 68.8392 3.94335 68.8133 4.04295C68.7874 4.14254 68.7882 4.24728 68.8157 4.34645C68.8431 4.44562 68.8962 4.53566 68.9696 4.60736L71.2405 6.82725L70.7209 9.96861V10.0314C70.7201 10.1327 70.7454 10.2324 70.7943 10.3209C70.8432 10.4094 70.914 10.4836 70.9999 10.5363C71.0857 10.589 71.1836 10.6185 71.284 10.6217C71.3845 10.625 71.4841 10.602 71.5731 10.555L74.3793 9.07856L77.1906 10.555L77.2478 10.5812C77.3432 10.6201 77.4472 10.6326 77.549 10.6174C77.6508 10.6021 77.7467 10.5597 77.8268 10.4946C77.9069 10.4294 77.9682 10.3438 78.0043 10.2467C78.0405 10.1496 78.0502 10.0446 78.0325 9.94243L77.5128 6.80107L79.7838 4.58118L79.8305 4.53406C79.8948 4.45354 79.9368 4.35735 79.9523 4.25521C79.9678 4.15308 79.9563 4.04863 79.9188 3.95244C79.8814 3.85625 79.8194 3.77174 79.7391 3.70747C79.6588 3.64319 79.563 3.60143 79.4616 3.58641L76.3436 3.13092L74.8626 0.324633C74.814 0.227713 74.7398 0.146264 74.648 0.0893573C74.5563 0.0324505 74.4506 0.00231934 74.3429 0.00231934C74.2352 0.00231934 74.1295 0.0324505 74.0378 0.0893573C73.946 0.146264 73.8718 0.227713 73.8232 0.324633L72.4098 3.1728Z" fill="#C79F59"/>
</g>
<defs>
<clipPath id="clip0_6_1567">
<rect width="178" height="41" fill="white"/>
</clipPath>
</defs>
</svg>
