<svg width="190" height="44" viewBox="0 0 190 44" fill="none" xmlns="http://www.w3.org/2000/svg">
<g clip-path="url(#clip0_6_1389)">
<path d="M11.3824 7.99536C19.1481 7.99536 23.5136 10.9789 23.5136 18.4124C23.5136 24.593 20.2187 27.4641 16.125 28.2732V28.4755C17.9721 29.3857 19.1204 30.723 20.7678 33.684L26.1095 43.4437H17.0236L11.2326 31.9141C10.5836 30.6499 9.63507 30.2285 8.03754 30.2285H7.53832V43.4437H0V7.99536H11.3824ZM7.53832 24.1266H10.4338C14.4776 24.1266 15.7756 22.3567 15.7756 19.0698C15.7756 15.7829 13.8674 14.367 10.5392 14.367H7.54386L7.53832 24.1266Z" fill="white"/>
<path d="M48.7245 40.8142C46.5057 42.6346 43.7821 44 38.3905 44C29.5154 44 24.9613 38.9431 24.9613 29.0823C24.9613 19.8283 30.0534 14.3164 38.1908 14.3164C45.4018 14.3164 49.5232 18.9181 49.5232 25.8965C49.5318 27.6054 49.415 29.3126 49.1738 31.0039H32.3499C32.4497 35.4989 34.4466 37.9823 39.2392 37.9823C40.3896 37.9957 41.5309 37.7737 42.5946 37.3296C43.6583 36.8854 44.6226 36.2284 45.4296 35.3978L48.7245 40.8142ZM32.4996 25.9471H42.4342V25.1886C42.4342 21.8511 41.0364 20.0812 37.9967 20.0812C34.5964 20.0812 32.5995 22.6096 32.4996 25.9471Z" fill="white"/>
<path d="M60.3065 28.5261C61.0605 31.0692 61.6771 33.652 62.1536 36.2631H62.3533C62.7501 33.649 63.3171 31.0644 64.0507 28.5261L67.6729 14.8727H75.2112L66.336 43.4437H57.9102L48.3251 14.8727H56.4625L60.3065 28.5261Z" fill="white"/>
<path d="M75.5829 14.8727H83.1212V43.4437H75.5829V14.8727Z" fill="white"/>
<path d="M108.881 40.8142C106.662 42.6346 103.939 44 98.5472 44C89.6721 44 85.118 38.9431 85.118 29.0823C85.118 19.8283 90.2102 14.3164 98.3475 14.3164C105.559 14.3164 109.68 18.9181 109.68 25.8965C109.688 27.6054 109.572 29.3126 109.331 31.0039H92.5066C92.6064 35.4989 94.6033 37.9823 99.3959 37.9823C100.546 37.9957 101.688 37.7737 102.751 37.3296C103.815 36.8854 104.779 36.2284 105.586 35.3978L108.881 40.8142ZM92.6342 25.9471H102.619V25.1886C102.619 21.8511 101.221 20.0812 98.1811 20.0812C94.7531 20.0812 92.7562 22.6096 92.6342 25.9471Z" fill="white"/>
<path d="M129.2 24.3289L124.607 43.4325H115.97L108.632 14.8727H116.17L119.165 28.0935C119.838 31.0253 120.321 33.9982 120.613 36.9935H120.813C121.102 34.0076 121.62 31.0489 122.36 28.144L125.855 14.8952H133.066L136.106 27.9418C136.805 30.9253 137.509 33.8582 137.653 36.9935H137.859C138.227 33.9108 138.783 30.8541 139.523 27.8406L142.518 14.9176H149.213L141.924 43.4437H133.127L129.383 24.3402L129.2 24.3289Z" fill="white"/>
<path d="M150.117 34.2741V20.6881H146.523V15.9347L150.167 14.4176L152.763 7.67517H157.534V14.8727H164.573V20.6881H157.534V34.4932C157.534 36.4654 158.643 37.4767 160.479 37.4767C161.859 37.4691 163.202 37.0273 164.323 36.2125L166.27 41.9267C165.322 42.6347 163.125 43.6966 158.432 43.6966C153.612 43.6966 150.117 41.2188 150.117 34.2741Z" fill="white"/>
<path d="M165.993 14.8727H173.531V33.3301C173.531 36.4653 175.029 38.0835 177.575 38.0835C178.645 38.097 179.694 37.7735 180.575 37.1575C181.457 36.5416 182.127 35.6636 182.495 34.6449V14.8727H190.028V43.4437H183.604L182.556 40.8142H182.362C180.698 42.8369 178.479 44 174.923 44C168.883 44 165.987 40.8142 165.987 34.038L165.993 14.8727Z" fill="white"/>
<path d="M77.2913 3.40491L73.9631 3.89374H73.891C73.7855 3.9219 73.6893 3.97794 73.6123 4.05613C73.5352 4.13432 73.48 4.23184 73.4524 4.33872C73.4247 4.44561 73.4256 4.55801 73.4549 4.66444C73.4842 4.77087 73.5409 4.86749 73.6192 4.94443L76.0432 7.32676L75.4885 10.698V10.7654C75.4878 10.8741 75.5148 10.9811 75.567 11.076C75.6192 11.171 75.6948 11.2506 75.7864 11.3072C75.878 11.3638 75.9825 11.3954 76.0897 11.3989C76.1969 11.4024 76.3032 11.3777 76.3982 11.3273L79.3936 9.7428L82.3945 11.3273L82.4555 11.3554C82.5574 11.3971 82.6684 11.4105 82.777 11.3942C82.8857 11.3778 82.9881 11.3323 83.0735 11.2624C83.159 11.1925 83.2244 11.1006 83.263 10.9964C83.3017 10.8923 83.312 10.7795 83.2931 10.6699L82.7384 7.29866L85.1624 4.91634L85.2124 4.86577C85.281 4.77936 85.3258 4.67613 85.3424 4.56652C85.3589 4.45691 85.3466 4.34482 85.3066 4.2416C85.2666 4.13837 85.2004 4.04768 85.1147 3.9787C85.029 3.90972 84.9268 3.8649 84.8185 3.84879L81.4904 3.35996L79.9095 0.348339C79.8577 0.244327 79.7784 0.156919 79.6805 0.095848C79.5825 0.0347773 79.4698 0.00244141 79.3548 0.00244141C79.2398 0.00244141 79.127 0.0347773 79.0291 0.095848C78.9312 0.156919 78.8519 0.244327 78.8001 0.348339L77.2913 3.40491Z" fill="#C79F59"/>
</g>
<defs>
<clipPath id="clip0_6_1389">
<rect width="190" height="44" fill="white"/>
</clipPath>
</defs>
</svg>
