<svg width="17" height="26" viewBox="0 0 17 26" fill="none" xmlns="http://www.w3.org/2000/svg">
<path d="M1.59603 23.6772C1.59603 24.0058 1.80094 24.1029 2.05615 23.8925L7.53145 19.3735C8.03771 18.9552 8.85652 18.9532 9.36525 19.3735L14.8406 23.8925C15.0949 24.1021 15.3007 24.0099 15.3007 23.6772V2.18483C15.3007 1.8563 15.0392 1.58995 14.703 1.58995H2.19394C1.8635 1.58995 1.59624 1.8526 1.59624 2.18483L1.59603 23.6772ZM1.91317 24.7785C1.40899 25.1951 1 25.0086 1 24.3491V2.18323C1 1.52989 1.53037 1 2.19376 1H14.7028C15.362 1 15.8966 1.52367 15.8966 2.18323V24.3491C15.8966 25.0028 15.4855 25.193 14.9834 24.7785L9.13565 19.9519C8.75575 19.6386 8.13769 19.6411 7.76068 19.9519L1.91317 24.7785Z" fill="black" stroke="#C4C4C4" stroke-width="1.5"/>
</svg>
