<svg width="38" height="38" viewBox="0 0 38 38" fill="none" xmlns="http://www.w3.org/2000/svg">
<path d="M0.257812 15.457C0.257812 17.5794 0.654948 19.5781 1.44922 21.4531C2.25651 23.3151 3.36328 24.9557 4.76953 26.375C6.1888 27.7943 7.82943 28.9076 9.69141 29.7148C11.5664 30.5091 13.5651 30.9062 15.6875 30.9062C17.1458 30.9062 18.5391 30.7109 19.8672 30.3203C21.1953 29.9167 22.4258 29.3568 23.5586 28.6406L31.2344 36.3359C31.5729 36.6615 31.957 36.9023 32.3867 37.0586C32.8294 37.2279 33.2852 37.3125 33.7539 37.3125C34.431 37.3125 35.0299 37.1562 35.5508 36.8438C36.0716 36.5443 36.4818 36.1276 36.7812 35.5938C37.0938 35.0729 37.25 34.474 37.25 33.7969C37.25 33.3542 37.1654 32.918 36.9961 32.4883C36.8268 32.0586 36.5794 31.668 36.2539 31.3164L28.6367 23.7188C29.431 22.5339 30.043 21.2448 30.4727 19.8516C30.9154 18.4453 31.1367 16.9805 31.1367 15.457C31.1367 13.3216 30.7331 11.3229 29.9258 9.46094C29.1315 7.58594 28.0247 5.94531 26.6055 4.53906C25.1992 3.11979 23.5586 2.01302 21.6836 1.21875C19.8216 0.411458 17.8229 0.0078125 15.6875 0.0078125C13.5651 0.0078125 11.5664 0.411458 9.69141 1.21875C7.82943 2.01302 6.1888 3.11979 4.76953 4.53906C3.36328 5.94531 2.25651 7.58594 1.44922 9.46094C0.654948 11.3229 0.257812 13.3216 0.257812 15.457ZM5.19922 15.457C5.19922 13.9987 5.47266 12.638 6.01953 11.375C6.56641 10.112 7.32161 8.9987 8.28516 8.03516C9.2487 7.07161 10.362 6.32292 11.625 5.78906C12.888 5.24219 14.2422 4.96875 15.6875 4.96875C17.1328 4.96875 18.487 5.24219 19.75 5.78906C21.026 6.32292 22.1393 7.07161 23.0898 8.03516C24.0534 8.9987 24.8086 10.112 25.3555 11.375C25.9023 12.638 26.1758 13.9987 26.1758 15.457C26.1758 16.9023 25.9023 18.263 25.3555 19.5391C24.8086 20.8021 24.0534 21.9154 23.0898 22.8789C22.1393 23.8294 21.026 24.5781 19.75 25.125C18.487 25.6589 17.1328 25.9258 15.6875 25.9258C14.2422 25.9258 12.888 25.6589 11.625 25.125C10.362 24.5781 9.2487 23.8294 8.28516 22.8789C7.32161 21.9154 6.56641 20.8021 6.01953 19.5391C5.47266 18.263 5.19922 16.9023 5.19922 15.457Z" fill="black"/>
</svg>
