<svg width="21" height="21" viewBox="0 0 21 21" fill="none" xmlns="http://www.w3.org/2000/svg">
<path d="M0.341797 8.90137C0.341797 10.0687 0.560221 11.168 0.99707 12.1992C1.44108 13.2233 2.0498 14.1257 2.82324 14.9062C3.60384 15.6868 4.50618 16.2992 5.53027 16.7432C6.56152 17.18 7.66081 17.3984 8.82812 17.3984C9.63021 17.3984 10.3965 17.291 11.127 17.0762C11.8574 16.8542 12.5342 16.5462 13.1572 16.1523L17.3789 20.3848C17.5651 20.5638 17.7764 20.6963 18.0127 20.7822C18.2562 20.8753 18.5068 20.9219 18.7646 20.9219C19.137 20.9219 19.4665 20.8359 19.7529 20.6641C20.0394 20.4993 20.265 20.2702 20.4297 19.9766C20.6016 19.6901 20.6875 19.3607 20.6875 18.9883C20.6875 18.7448 20.641 18.5049 20.5479 18.2686C20.4548 18.0322 20.3187 17.8174 20.1396 17.624L15.9502 13.4453C16.387 12.7936 16.7236 12.0846 16.96 11.3184C17.2035 10.5449 17.3252 9.73926 17.3252 8.90137C17.3252 7.72689 17.1032 6.6276 16.6592 5.60352C16.2223 4.57227 15.6136 3.66992 14.833 2.89648C14.0596 2.11589 13.1572 1.50716 12.126 1.07031C11.1019 0.626302 10.0026 0.404297 8.82812 0.404297C7.66081 0.404297 6.56152 0.626302 5.53027 1.07031C4.50618 1.50716 3.60384 2.11589 2.82324 2.89648C2.0498 3.66992 1.44108 4.57227 0.99707 5.60352C0.560221 6.6276 0.341797 7.72689 0.341797 8.90137ZM3.05957 8.90137C3.05957 8.09928 3.20996 7.35091 3.51074 6.65625C3.81152 5.96159 4.22689 5.34928 4.75684 4.81934C5.28678 4.28939 5.89909 3.8776 6.59375 3.58398C7.28841 3.2832 8.0332 3.13281 8.82812 3.13281C9.62305 3.13281 10.3678 3.2832 11.0625 3.58398C11.7643 3.8776 12.3766 4.28939 12.8994 4.81934C13.4294 5.34928 13.8447 5.96159 14.1455 6.65625C14.4463 7.35091 14.5967 8.09928 14.5967 8.90137C14.5967 9.69629 14.4463 10.4447 14.1455 11.1465C13.8447 11.8411 13.4294 12.4535 12.8994 12.9834C12.3766 13.5062 11.7643 13.918 11.0625 14.2188C10.3678 14.5124 9.62305 14.6592 8.82812 14.6592C8.0332 14.6592 7.28841 14.5124 6.59375 14.2188C5.89909 13.918 5.28678 13.5062 4.75684 12.9834C4.22689 12.4535 3.81152 11.8411 3.51074 11.1465C3.20996 10.4447 3.05957 9.69629 3.05957 8.90137Z" fill="#8C8C8C"/>
</svg>
