<svg width="26" height="26" viewBox="0 0 26 26" fill="none" xmlns="http://www.w3.org/2000/svg">
<path d="M12.6362 25.6377C19.4478 25.6377 25.0874 19.9858 25.0874 13.1865C25.0874 6.375 19.4355 0.735352 12.624 0.735352C5.82471 0.735352 0.185059 6.375 0.185059 13.1865C0.185059 19.9858 5.83691 25.6377 12.6362 25.6377ZM12.6362 23.5625C6.87451 23.5625 2.27246 18.9482 2.27246 13.1865C2.27246 7.4248 6.8623 2.81055 12.624 2.81055C18.3857 2.81055 23 7.4248 23.0122 13.1865C23.0244 18.9482 18.3979 23.5625 12.6362 23.5625ZM12.8682 20.9014C13.3564 20.9014 13.7104 20.4863 13.9546 19.8394L18.4224 8.15723C18.5444 7.83984 18.6055 7.57129 18.6055 7.33936C18.6055 6.8999 18.3491 6.64355 17.9097 6.64355C17.6777 6.64355 17.4092 6.70459 17.0918 6.82666L5.34863 11.3188C4.78711 11.5264 4.34766 11.8804 4.34766 12.3687C4.34766 12.9912 4.81152 13.1987 5.4707 13.4062L9.16943 14.5171C9.60889 14.6636 9.85303 14.6514 10.146 14.3828L17.6045 7.38818C17.6899 7.30273 17.7876 7.32715 17.8608 7.38818C17.9463 7.44922 17.9463 7.55908 17.8608 7.64453L10.9028 15.1396C10.6343 15.4204 10.6099 15.6401 10.7319 16.104L11.8306 19.7051C12.0503 20.4009 12.2334 20.9014 12.8682 20.9014Z" fill="black"/>
</svg>
