<svg width="23" height="23" viewBox="0 0 23 23" fill="none" xmlns="http://www.w3.org/2000/svg">
<path d="M10.3031 22.4656H12.1844C12.5417 22.4656 12.8479 22.3635 13.1031 22.1593C13.3583 21.9552 13.526 21.6817 13.6062 21.339L14.0984 19.239C14.2443 19.1953 14.3865 19.1443 14.525 19.0859C14.6636 19.0277 14.7985 18.9693 14.9297 18.9109L16.7563 20.0374C17.0479 20.2198 17.3579 20.2928 17.6859 20.2563C18.014 20.227 18.2985 20.0921 18.5391 19.8515L19.8625 18.5281C20.1177 18.2801 20.2599 17.9885 20.2891 17.6531C20.3182 17.3177 20.2343 17.0041 20.0375 16.7125L18.9219 14.8969C18.9875 14.7656 19.0459 14.6344 19.0969 14.5031C19.1551 14.3719 19.2062 14.237 19.25 14.0984L21.3609 13.6063C21.7036 13.526 21.9734 13.3583 22.1703 13.1031C22.3745 12.8479 22.4766 12.5417 22.4766 12.1844V10.3359C22.4766 9.98594 22.3745 9.68333 22.1703 9.42813C21.9734 9.17291 21.7036 9.00522 21.3609 8.92501L19.2609 8.43282C19.2172 8.27968 19.1662 8.1375 19.1078 8.00626C19.0567 7.86771 19.002 7.74011 18.9438 7.62344L20.0593 5.77501C20.2563 5.46875 20.3401 5.15522 20.311 4.83437C20.2817 4.50626 20.1396 4.21822 19.8844 3.97032L18.5391 2.63594C18.2838 2.4099 18.0031 2.27864 17.6969 2.24219C17.3979 2.20573 17.099 2.27136 16.7999 2.43906L14.9297 3.5875C14.8057 3.52917 14.6745 3.47448 14.5359 3.42344C14.3974 3.3651 14.2552 3.31042 14.1094 3.25938L13.6062 1.12656C13.526 0.783854 13.3583 0.510418 13.1031 0.30625C12.8479 0.102083 12.5417 0 12.1844 0H10.3031C9.94583 0 9.63959 0.102083 9.38437 0.30625C9.12917 0.510418 8.96146 0.787501 8.88125 1.1375L8.37813 3.2375C8.23959 3.28854 8.0974 3.34323 7.95156 3.40157C7.80573 3.45261 7.67084 3.51094 7.54687 3.57656L5.67656 2.43906C5.3776 2.27136 5.075 2.20573 4.76876 2.24219C4.4698 2.27864 4.19636 2.41354 3.94844 2.64688L2.60313 3.97032C2.34793 4.21822 2.20573 4.50626 2.17656 4.83437C2.1474 5.15522 2.22761 5.46875 2.41719 5.77501L3.53282 7.62344C3.48176 7.74011 3.42708 7.86771 3.36876 8.00626C3.31772 8.1375 3.26666 8.27968 3.21562 8.43282L1.12656 8.92501C0.776565 9.00522 0.499477 9.17291 0.295317 9.42813C0.0984384 9.68333 0 9.98594 0 10.3359V12.1844C0 12.5417 0.0984384 12.8479 0.295317 13.1031C0.499477 13.3583 0.776565 13.526 1.12656 13.6063L3.23749 14.0984C3.28125 14.237 3.32864 14.3719 3.37968 14.5031C3.43802 14.6344 3.49636 14.7656 3.55469 14.8969L2.43906 16.7125C2.24218 17.0041 2.15834 17.3177 2.18749 17.6531C2.22396 17.9885 2.36615 18.2801 2.61407 18.5281L3.93749 19.8515C4.18541 20.0921 4.47344 20.227 4.80156 20.2563C5.12968 20.2928 5.43959 20.2198 5.73125 20.0374L7.55781 18.9109C7.68177 18.9693 7.81303 19.0277 7.95156 19.0859C8.0974 19.1443 8.23959 19.1953 8.37813 19.239L8.88125 21.339C8.96146 21.6817 9.12917 21.9552 9.38437 22.1593C9.63959 22.3635 9.94583 22.4656 10.3031 22.4656ZM11.2437 14.8203C10.5875 14.8203 9.98594 14.6563 9.43906 14.3281C8.89948 14 8.46927 13.5661 8.14844 13.0266C7.8276 12.487 7.66719 11.8854 7.66719 11.2219C7.66719 10.5729 7.8276 9.97864 8.14844 9.43906C8.46927 8.89947 8.89948 8.46926 9.43906 8.14843C9.98594 7.82032 10.5875 7.65626 11.2437 7.65626C11.9 7.65626 12.4979 7.82032 13.0375 8.14843C13.5771 8.46926 14.0073 8.89947 14.3281 9.43906C14.6563 9.97864 14.8203 10.5729 14.8203 11.2219C14.8203 11.8854 14.6563 12.487 14.3281 13.0266C14.0073 13.5661 13.5771 14 13.0375 14.3281C12.4979 14.6563 11.9 14.8203 11.2437 14.8203Z" fill="black"/>
</svg>
