<svg width="24" height="24" viewBox="0 0 24 24" fill="none" xmlns="http://www.w3.org/2000/svg">
<path d="M11.0952 23.7734H13.3334C13.7475 23.7734 14.0991 23.6562 14.3881 23.4219C14.6772 23.1953 14.8725 22.8789 14.9741 22.4727L15.4545 20.3867L15.8764 20.2227L17.7045 21.3594C18.0561 21.5781 18.4155 21.6641 18.7827 21.6172C19.1498 21.5781 19.4819 21.4102 19.7788 21.1133L21.3256 19.5664C21.6303 19.2695 21.8022 18.9375 21.8413 18.5703C21.8881 18.1953 21.8022 17.832 21.5834 17.4805L20.435 15.6641L20.5991 15.2539L22.6967 14.7734C23.0873 14.6797 23.3998 14.4883 23.6342 14.1992C23.8686 13.9023 23.9858 13.543 23.9858 13.1211V10.9414C23.9858 10.5273 23.8686 10.1758 23.6342 9.88672C23.4077 9.58984 23.0952 9.39062 22.6967 9.28906L20.6108 8.79688L20.4467 8.375L21.5952 6.55859C21.8139 6.20703 21.8998 5.84766 21.853 5.48047C21.8139 5.10547 21.642 4.76953 21.3373 4.47266L19.7905 2.92578C19.5014 2.62891 19.1694 2.46094 18.7944 2.42188C18.4272 2.375 18.0678 2.45703 17.7163 2.66797L15.8998 3.79297L15.4545 3.62891L14.9741 1.53125C14.8725 1.13281 14.6772 0.816406 14.3881 0.582031C14.0991 0.347656 13.7475 0.230469 13.3334 0.230469H11.0952C10.6811 0.230469 10.3295 0.347656 10.0405 0.582031C9.75141 0.816406 9.5561 1.13281 9.45453 1.53125L8.96235 3.62891L8.52875 3.79297L6.70063 2.66797C6.34907 2.45703 5.98578 2.375 5.61078 2.42188C5.2436 2.46094 4.91547 2.62891 4.62641 2.92578L3.07953 4.47266C2.78266 4.76953 2.61078 5.10547 2.56391 5.48047C2.51703 5.84766 2.60297 6.20703 2.82172 6.55859L3.95844 8.375L3.79438 8.79688L1.73188 9.28906C1.32563 9.39062 1.00532 9.58984 0.770941 9.88672C0.544378 10.1758 0.431097 10.5273 0.431097 10.9414V13.1211C0.431097 13.543 0.548285 13.9023 0.78266 14.1992C1.01703 14.4883 1.33344 14.6797 1.73188 14.7734L3.81782 15.2539L3.97016 15.6641L2.83344 17.4805C2.61469 17.832 2.52875 18.1953 2.57563 18.5703C2.6225 18.9375 2.79438 19.2695 3.09125 19.5664L4.63813 21.1133C4.92719 21.4102 5.25922 21.5781 5.63422 21.6172C6.00922 21.6641 6.3725 21.5781 6.72407 21.3594L8.52875 20.2227L8.96235 20.3867L9.45453 22.4727C9.5561 22.8789 9.75141 23.1953 10.0405 23.4219C10.3295 23.6562 10.6811 23.7734 11.0952 23.7734ZM11.2592 22.2031C11.0483 22.2031 10.9233 22.1016 10.8842 21.8984L10.228 19.1797C9.89985 19.0938 9.58735 18.9922 9.29047 18.875C8.9936 18.75 8.73188 18.6172 8.50532 18.4766L6.11469 19.9531C5.95063 20.0625 5.78657 20.0391 5.6225 19.8828L4.29828 18.5586C4.14985 18.4258 4.13422 18.2695 4.25141 18.0898L5.72797 15.6992C5.61078 15.4727 5.48578 15.2109 5.35297 14.9141C5.22797 14.6172 5.1225 14.3086 5.03657 13.9883L2.29438 13.3438C2.09907 13.3047 2.00141 13.1797 2.00141 12.9688V11.082C2.00141 10.8711 2.09907 10.7461 2.29438 10.707L5.02485 10.0508C5.11078 9.71484 5.22016 9.39453 5.35297 9.08984C5.48578 8.78516 5.60297 8.53125 5.70453 8.32812L4.23969 5.94922C4.1225 5.76953 4.13813 5.60547 4.28657 5.45703L5.61078 4.14453C5.76703 3.99609 5.935 3.97656 6.11469 4.08594L8.48188 5.53906C8.71625 5.40625 8.98578 5.27734 9.29047 5.15234C9.60297 5.02734 9.91938 4.92187 10.2397 4.83594L10.8842 2.10547C10.9233 1.91016 11.0483 1.8125 11.2592 1.8125H13.1694C13.3803 1.8125 13.5053 1.91016 13.5444 2.10547L14.2006 4.84766C14.5288 4.94141 14.8373 5.05078 15.1264 5.17578C15.4155 5.29297 15.6811 5.41797 15.9233 5.55078L18.3022 4.08594C18.4819 3.97656 18.6498 3.99609 18.8061 4.14453L20.1303 5.45703C20.2788 5.60547 20.2944 5.76953 20.1772 5.94922L18.7123 8.32812C18.8139 8.53125 18.9311 8.78516 19.0639 9.08984C19.1967 9.38672 19.3061 9.70703 19.392 10.0508L22.1108 10.707C22.3139 10.7461 22.4155 10.8711 22.4155 11.082V12.9688C22.4155 13.1797 22.3139 13.3047 22.1108 13.3438L19.3803 13.9883C19.3022 14.3164 19.1967 14.6289 19.0639 14.9258C18.9389 15.2148 18.8178 15.4727 18.7006 15.6992L20.1655 18.0898C20.2748 18.2695 20.2553 18.4258 20.1069 18.5586L18.7944 19.8828C18.6303 20.0391 18.4663 20.0625 18.3022 19.9531L15.9233 18.4766C15.6811 18.6172 15.4155 18.75 15.1264 18.875C14.8373 18.9922 14.5288 19.0938 14.2006 19.1797L13.5444 21.8984C13.5053 22.1016 13.3803 22.2031 13.1694 22.2031H11.2592ZM12.2202 16.2266C12.9936 16.2266 13.6967 16.0391 14.3295 15.6641C14.9702 15.2812 15.4819 14.7695 15.8647 14.1289C16.2475 13.4883 16.4389 12.7773 16.4389 11.9961C16.4389 11.2305 16.2475 10.5273 15.8647 9.88672C15.4819 9.24609 14.9702 8.73828 14.3295 8.36328C13.6967 7.98047 12.9936 7.78906 12.2202 7.78906C11.4467 7.78906 10.7358 7.98047 10.0873 8.36328C9.44672 8.73828 8.935 9.24609 8.55219 9.88672C8.16938 10.5273 7.97797 11.2305 7.97797 11.9961C7.97797 12.7695 8.16938 13.4766 8.55219 14.1172C8.935 14.7578 9.44672 15.2695 10.0873 15.6523C10.728 16.0352 11.4389 16.2266 12.2202 16.2266ZM12.2202 14.6797C11.728 14.6797 11.2788 14.5586 10.8725 14.3164C10.4741 14.0742 10.1538 13.75 9.91157 13.3438C9.66938 12.9375 9.54828 12.4883 9.54828 11.9961C9.54828 11.5195 9.66938 11.082 9.91157 10.6836C10.1538 10.2773 10.4741 9.95312 10.8725 9.71094C11.2788 9.46875 11.728 9.34766 12.2202 9.34766C12.6967 9.34766 13.1342 9.46875 13.5327 9.71094C13.9389 9.95312 14.2592 10.2773 14.4936 10.6836C14.7358 11.082 14.8569 11.5195 14.8569 11.9961C14.8569 12.4883 14.7358 12.9375 14.4936 13.3438C14.2592 13.7422 13.9389 14.0664 13.5327 14.3164C13.1342 14.5586 12.6967 14.6797 12.2202 14.6797Z" fill="black"/>
</svg>
