<svg width="23" height="23" viewBox="0 0 23 23" fill="none" xmlns="http://www.w3.org/2000/svg">
<path d="M4.21289 22.4756H18.7744C20.0524 22.4756 21.013 22.154 21.6562 21.5107C22.3079 20.876 22.6338 19.9281 22.6338 18.667V4.0293C22.6338 2.76823 22.3079 1.81608 21.6562 1.17285C21.013 0.529622 20.0524 0.208008 18.7744 0.208008H4.21289C2.94336 0.208008 1.98275 0.529622 1.33105 1.17285C0.679362 1.80762 0.353516 2.75977 0.353516 4.0293V18.667C0.353516 19.9365 0.679362 20.8887 1.33105 21.5234C1.98275 22.1582 2.94336 22.4756 4.21289 22.4756ZM4.30176 20.3301C3.72624 20.3301 3.28613 20.1777 2.98145 19.873C2.67676 19.5684 2.52441 19.1156 2.52441 18.5146V4.18164C2.52441 3.58073 2.67676 3.12793 2.98145 2.82324C3.28613 2.51855 3.72624 2.36621 4.30176 2.36621H18.6855C19.2526 2.36621 19.6927 2.51855 20.0059 2.82324C20.319 3.12793 20.4756 3.58073 20.4756 4.18164V18.5146C20.4756 19.1156 20.319 19.5684 20.0059 19.873C19.6927 20.1777 19.2526 20.3301 18.6855 20.3301H4.30176ZM8.11035 17.4863L11.5 14.9854L14.8896 17.4863C15.2451 17.7487 15.5667 17.7783 15.8545 17.5752C16.1423 17.3636 16.2142 17.0462 16.0703 16.623L14.7246 12.624L18.165 10.1738C18.3766 10.0215 18.4993 9.83105 18.5332 9.60254C18.5671 9.37402 18.512 9.17936 18.3682 9.01855C18.2327 8.84928 18.0169 8.76465 17.7207 8.76465L13.5059 8.80273L12.2109 4.77832C12.084 4.37207 11.8428 4.16895 11.4873 4.16895C11.1403 4.16895 10.9076 4.37207 10.7891 4.77832L9.49414 8.80273L5.2793 8.76465C4.98307 8.76465 4.76302 8.84928 4.61914 9.01855C4.48372 9.17936 4.42871 9.37402 4.4541 9.60254C4.48796 9.82259 4.61491 10.013 4.83496 10.1738L8.2627 12.624L6.92969 16.623C6.82812 16.9108 6.83236 17.152 6.94238 17.3467C7.05241 17.5329 7.21322 17.6471 7.4248 17.6895C7.63639 17.7233 7.86491 17.6556 8.11035 17.4863Z" fill="black"/>
</svg>
