<svg width="12" height="11" viewBox="0 0 12 11" fill="none" xmlns="http://www.w3.org/2000/svg">
<path d="M3.07617 10.3872C3.27637 10.5435 3.53027 10.4897 3.83301 10.27L6.41602 8.37061L9.00391 10.27C9.30664 10.4897 9.55566 10.5435 9.76074 10.3872C9.96094 10.2358 10.0049 9.98682 9.88281 9.63037L8.8623 6.59326L11.4697 4.71826C11.7725 4.50342 11.8945 4.27881 11.8164 4.03467C11.7383 3.80029 11.5088 3.68311 11.1328 3.68799L7.93457 3.70752L6.96289 0.655762C6.8457 0.294434 6.66992 0.11377 6.41602 0.11377C6.16699 0.11377 5.99121 0.294434 5.87402 0.655762L4.90234 3.70752L1.7041 3.68799C1.32812 3.68311 1.09863 3.80029 1.02051 4.03467C0.9375 4.27881 1.06445 4.50342 1.36719 4.71826L3.97461 6.59326L2.9541 9.63037C2.83203 9.98682 2.87598 10.2358 3.07617 10.3872Z" fill="black"/>
</svg>
