<svg width="12" height="12" viewBox="0 0 12 12" fill="none" xmlns="http://www.w3.org/2000/svg">
<path d="M3.07617 11.2207C3.27637 11.377 3.53027 11.3232 3.83301 11.1035L6.41602 9.2041L9.00391 11.1035C9.30664 11.3232 9.55566 11.377 9.76074 11.2207C9.96094 11.0693 10.0049 10.8203 9.88281 10.4639L8.8623 7.42676L11.4697 5.55176C11.7725 5.33691 11.8945 5.1123 11.8164 4.86816C11.7383 4.63379 11.5088 4.5166 11.1328 4.52148L7.93457 4.54102L6.96289 1.48926C6.8457 1.12793 6.66992 0.947266 6.41602 0.947266C6.16699 0.947266 5.99121 1.12793 5.87402 1.48926L4.90234 4.54102L1.7041 4.52148C1.32812 4.5166 1.09863 4.63379 1.02051 4.86816C0.9375 5.1123 1.06445 5.33691 1.36719 5.55176L3.97461 7.42676L2.9541 10.4639C2.83203 10.8203 2.87598 11.0693 3.07617 11.2207Z" fill="white"/>
</svg>
