<svg width="16" height="4" viewBox="0 0 16 4" fill="none" xmlns="http://www.w3.org/2000/svg">
<path fill-rule="evenodd" clip-rule="evenodd" d="M2.39997 0.15625C3.26153 0.15625 3.95997 0.897778 3.95997 1.8125C3.95997 2.72722 3.26153 3.46875 2.39997 3.46875C1.5384 3.46875 0.839966 2.72722 0.839966 1.8125C0.839966 0.897778 1.5384 0.15625 2.39997 0.15625ZM8.11997 0.15625C8.98153 0.15625 9.67997 0.897779 9.67997 1.8125C9.67997 2.72722 8.98153 3.46875 8.11997 3.46875C7.2584 3.46875 6.55997 2.72722 6.55997 1.8125C6.55997 0.897779 7.2584 0.15625 8.11997 0.15625ZM13.84 0.15625C14.7015 0.15625 15.4 0.897779 15.4 1.8125C15.4 2.72722 14.7015 3.46875 13.84 3.46875C12.9784 3.46875 12.28 2.72722 12.28 1.8125C12.28 0.897779 12.9784 0.15625 13.84 0.15625Z" fill="#262626"/>
</svg>
