<svg width="24" height="24" viewBox="0 0 24 24" fill="none" xmlns="http://www.w3.org/2000/svg">
<path d="M12.2202 23.2227C13.7592 23.2227 15.2045 22.9297 16.5561 22.3438C17.9077 21.7578 19.0991 20.9492 20.1303 19.918C21.1694 18.8867 21.9819 17.6953 22.5678 16.3438C23.1538 14.9844 23.4467 13.5352 23.4467 11.9961C23.4467 10.4648 23.1498 9.02344 22.5561 7.67188C21.9702 6.3125 21.1577 5.11719 20.1186 4.08594C19.0873 3.04687 17.8959 2.23438 16.5444 1.64844C15.1928 1.0625 13.7475 0.769531 12.2084 0.769531C10.6772 0.769531 9.23578 1.0625 7.88422 1.64844C6.53266 2.23438 5.33735 3.04687 4.29828 4.08594C3.26703 5.11719 2.45844 6.3125 1.8725 7.67188C1.28657 9.02344 0.993597 10.4648 0.993597 11.9961C0.993597 13.5352 1.28657 14.9844 1.8725 16.3438C2.46625 17.6953 3.27875 18.8867 4.31 19.918C5.34125 20.9492 6.53266 21.7578 7.88422 22.3438C9.23578 22.9297 10.6811 23.2227 12.2202 23.2227ZM12.2202 21.5234C10.8998 21.5234 9.66157 21.2773 8.50532 20.7852C7.35688 20.293 6.34907 19.6133 5.48188 18.7461C4.61469 17.8711 3.935 16.8594 3.44282 15.7109C2.95063 14.5547 2.70453 13.3164 2.70453 11.9961C2.70453 10.6836 2.95063 9.45312 3.44282 8.30469C3.935 7.14844 4.61469 6.13672 5.48188 5.26953C6.34907 4.39453 7.35688 3.71094 8.50532 3.21875C9.65375 2.72656 10.8881 2.48047 12.2084 2.48047C13.5366 2.48047 14.7748 2.72656 15.9233 3.21875C17.0795 3.71094 18.0913 4.39453 18.9584 5.26953C19.8334 6.13672 20.5131 7.14844 20.9975 8.30469C21.4897 9.45312 21.7358 10.6836 21.7358 11.9961C21.7358 13.3164 21.4897 14.5547 20.9975 15.7109C20.5131 16.8594 19.8334 17.8711 18.9584 18.7461C18.0913 19.6133 17.0795 20.293 15.9233 20.7852C14.7748 21.2773 13.5405 21.5234 12.2202 21.5234ZM7.06391 13.5664C7.50141 13.5664 7.8725 13.4141 8.17719 13.1094C8.48188 12.7969 8.63422 12.4219 8.63422 11.9844C8.63422 11.5547 8.47797 11.1875 8.16547 10.8828C7.86078 10.5703 7.4936 10.4141 7.06391 10.4141C6.63422 10.4141 6.26313 10.5703 5.95063 10.8828C5.64594 11.1875 5.4936 11.5547 5.4936 11.9844C5.4936 12.4219 5.64594 12.7969 5.95063 13.1094C6.26313 13.4141 6.63422 13.5664 7.06391 13.5664ZM12.2084 13.5664C12.6459 13.5664 13.017 13.4141 13.3217 13.1094C13.6264 12.7969 13.7788 12.4219 13.7788 11.9844C13.7788 11.5547 13.6264 11.1875 13.3217 10.8828C13.017 10.5703 12.6459 10.4141 12.2084 10.4141C11.7709 10.4141 11.3998 10.5703 11.0952 10.8828C10.7905 11.1875 10.6381 11.5547 10.6381 11.9844C10.6381 12.4219 10.7905 12.7969 11.0952 13.1094C11.3998 13.4141 11.7709 13.5664 12.2084 13.5664ZM17.3647 13.5664C17.7866 13.5664 18.1498 13.4141 18.4545 13.1094C18.767 12.7969 18.9233 12.4219 18.9233 11.9844C18.9233 11.5547 18.767 11.1875 18.4545 10.8828C18.1498 10.5703 17.7866 10.4141 17.3647 10.4141C16.9272 10.4141 16.5522 10.5703 16.2397 10.8828C15.935 11.1875 15.7827 11.5547 15.7827 11.9844C15.7827 12.4219 15.935 12.7969 16.2397 13.1094C16.5522 13.4141 16.9272 13.5664 17.3647 13.5664Z" fill="black"/>
</svg>
