<svg width="12" height="13" viewBox="0 0 12 13" fill="none" xmlns="http://www.w3.org/2000/svg">
<path d="M2.26758 12.4561H10.3613C11.446 12.4561 11.9883 12.0983 11.9883 11.3828C11.9883 10.9499 11.8561 10.4941 11.5918 10.0156C11.332 9.53255 10.9538 9.08138 10.457 8.66211C9.96484 8.24284 9.37012 7.90104 8.67285 7.63672C7.97559 7.36784 7.19173 7.2334 6.32129 7.2334C5.44629 7.2334 4.65788 7.36784 3.95605 7.63672C3.25879 7.90104 2.66406 8.24284 2.17188 8.66211C1.67969 9.08138 1.30143 9.53255 1.03711 10.0156C0.777344 10.4941 0.647461 10.9499 0.647461 11.3828C0.647461 12.0983 1.1875 12.4561 2.26758 12.4561ZM2.01465 11.4033C1.93717 11.4033 1.88021 11.3896 1.84375 11.3623C1.80729 11.3395 1.78906 11.2962 1.78906 11.2324C1.78906 10.9772 1.88704 10.6833 2.08301 10.3506C2.28353 10.0133 2.5752 9.68978 2.95801 9.37988C3.34538 9.06543 3.81934 8.80566 4.37988 8.60059C4.94499 8.39095 5.59212 8.28613 6.32129 8.28613C7.0459 8.28613 7.68848 8.39095 8.24902 8.60059C8.80957 8.80566 9.28125 9.06543 9.66406 9.37988C10.0514 9.68978 10.3454 10.0133 10.5459 10.3506C10.7464 10.6833 10.8467 10.9772 10.8467 11.2324C10.8467 11.2962 10.8285 11.3395 10.792 11.3623C10.7601 11.3896 10.7031 11.4033 10.6211 11.4033H2.01465ZM6.32129 6.46094C6.83626 6.46094 7.30566 6.32194 7.72949 6.04395C8.15788 5.76595 8.4974 5.39681 8.74805 4.93652C9.00326 4.47168 9.13086 3.95898 9.13086 3.39844C9.13086 2.85156 9.00553 2.35254 8.75488 1.90137C8.50423 1.4502 8.16471 1.09245 7.73633 0.828125C7.30794 0.559245 6.83626 0.424805 6.32129 0.424805C5.80632 0.424805 5.33464 0.559245 4.90625 0.828125C4.48242 1.09701 4.1429 1.45703 3.8877 1.9082C3.63249 2.35938 3.50716 2.86068 3.51172 3.41211C3.51172 3.97266 3.63704 4.48307 3.8877 4.94336C4.1429 5.40365 4.48242 5.77279 4.90625 6.05078C5.33464 6.32422 5.80632 6.46094 6.32129 6.46094ZM6.32129 5.4082C6.01595 5.4082 5.7334 5.32161 5.47363 5.14844C5.21387 4.9707 5.00651 4.73145 4.85156 4.43066C4.69661 4.12533 4.61914 3.78581 4.61914 3.41211C4.61914 3.04753 4.69434 2.7194 4.84473 2.42773C4.99967 2.13607 5.20703 1.90592 5.4668 1.7373C5.72656 1.56413 6.01139 1.47754 6.32129 1.47754C6.63574 1.47754 6.92057 1.56185 7.17578 1.73047C7.43099 1.89909 7.63379 2.12923 7.78418 2.4209C7.93913 2.70801 8.0166 3.03385 8.0166 3.39844C8.0166 3.77669 7.93913 4.11849 7.78418 4.42383C7.62923 4.72461 7.42415 4.96387 7.16895 5.1416C6.91374 5.31934 6.63118 5.4082 6.32129 5.4082Z" fill="black"/>
</svg>
