<svg width="11" height="12" viewBox="0 0 11 12" fill="none" xmlns="http://www.w3.org/2000/svg">
<path fill-rule="evenodd" clip-rule="evenodd" d="M5.14707 0.567993L6.42858 1.45501L7.9584 1.44427L8.58472 2.92595L9.87716 3.7949L9.64943 5.40082L10.2941 6.87357L9.28468 8.09386L9.07697 9.70282L7.60626 10.15L6.61208 11.3844L5.14707 10.9166L3.68206 11.3844L2.68788 10.15L1.21717 9.70282L1.00947 8.09386L0 6.87357L0.644712 5.40082L0.416985 3.7949L1.70942 2.92595L2.33574 1.44427L3.86557 1.45501L5.14707 0.567993ZM6.50829 4.45265L4.46085 6.76025L3.78594 5.99958C3.62842 5.82205 3.36514 5.81368 3.1979 5.98089C3.03065 6.14811 3.02277 6.42759 3.18029 6.60513L4.15802 7.7071C4.32226 7.8922 4.59944 7.8922 4.76368 7.7071L7.11395 5.05819C7.27147 4.88066 7.26359 4.60117 7.09634 4.43396C6.92909 4.26674 6.66581 4.27511 6.50829 4.45265Z" fill="#3897F0"/>
</svg>
