<svg width="10" height="11" viewBox="0 0 10 11" fill="none" xmlns="http://www.w3.org/2000/svg">
<path d="M0.681641 10.3047C0.939453 10.5566 1.36133 10.5566 1.60742 10.3105L5.21094 6.70703L8.81445 10.3105C9.06641 10.5566 9.48828 10.5625 9.74023 10.3047C9.99219 10.0527 9.99219 9.63086 9.74609 9.38477L6.14258 5.77539L9.74609 2.17188C9.99219 1.92578 9.99805 1.49805 9.74023 1.25195C9.48242 1 9.06641 1 8.81445 1.24609L5.21094 4.84961L1.60742 1.24609C1.36133 1 0.933594 0.994141 0.681641 1.24609C0.429688 1.50391 0.435547 1.93164 0.681641 2.17188L4.28516 5.77539L0.681641 9.38477C0.435547 9.625 0.429688 10.0586 0.681641 10.3047Z" fill="black" fill-opacity="0.8"/>
</svg>
